<?xml version="1.0" encoding="utf-8"?>
<!-- Generator: Adobe Illustrator 22.1.0, SVG Export Plug-In . SVG Version: 6.00 Build 0)  -->
<svg version="1.1" id="Слой_1" xmlns="http://www.w3.org/2000/svg" xmlns:xlink="http://www.w3.org/1999/xlink" x="0px" y="0px"
	 viewBox="0 0 336 143" style="enable-background:new 0 0 336 143;" xml:space="preserve">
<style type="text/css">
	.st0{fill:#0081C6;}
</style>
<path class="st0" d="M4,8L0,71.1c0,0,0,0,0,0l1.6,56.7c0.3,9.1,10.3,16.1,21.8,15.1l72.6-6.2l93.1-5.9l77.8-5.6
	c9.1-0.7,16.4-6.3,17.5-13.4l3.7-23.9c0.6-3.8,5.2-6.2,9.8-5.3l33.7,7c3.6,0.8,6.1-2.9,3.2-4.8l-35-24.4c-3.7-2.6-6.4-6-7.7-9.8
	l-8.2-24.2c-1.8-5.2-7.4-9-14.1-9.5l-80.8-6.8L96.1,2.7c0,0,0,0,0,0L15.1,0C9.3-0.2,4.3,3.4,4,8z"/>
</svg>
