<?xml version="1.0" encoding="utf-8"?>
<!-- Generator: Adobe Illustrator 22.1.0, SVG Export Plug-In . SVG Version: 6.00 Build 0)  -->
<svg version="1.1" id="OBJECTS" xmlns="http://www.w3.org/2000/svg" xmlns:xlink="http://www.w3.org/1999/xlink" x="0px" y="0px"
	 viewBox="0 0 42 42" style="enable-background:new 0 0 42 42;" xml:space="preserve">
<style type="text/css">
	.st0{fill:#6791C9;}
	.st1{fill:#222222;}
</style>
<g>
	<path class="st0" d="M21,42C9.4,42,0,32.6,0,21S9.4,0,21,0s21,9.4,21,21S32.6,42,21,42z M21,1.8C10.4,1.8,1.8,10.4,1.8,21
		S10.4,40.2,21,40.2S40.2,31.6,40.2,21S31.6,1.8,21,1.8z"/>
</g>
<g>
	<path class="st0" d="M5.4,21.9H0.9C0.4,21.9,0,21.5,0,21s0.4-0.9,0.9-0.9h4.5c0.5,0,0.9,0.4,0.9,0.9S5.9,21.9,5.4,21.9z"/>
</g>
<g>
	<path class="st0" d="M41.1,21.9h-4.5c-0.5,0-0.9-0.4-0.9-0.9s0.4-0.9,0.9-0.9h4.5c0.5,0,0.9,0.4,0.9,0.9S41.6,21.9,41.1,21.9z"/>
</g>
<g>
	<path class="st0" d="M21,42c-0.5,0-0.9-0.4-0.9-0.9v-4.5c0-0.5,0.4-0.9,0.9-0.9s0.9,0.4,0.9,0.9v4.5C21.9,41.6,21.5,42,21,42z"/>
</g>
<g>
	<path class="st0" d="M21,6.3c-0.5,0-0.9-0.4-0.9-0.9V0.9C20.1,0.4,20.5,0,21,0s0.9,0.4,0.9,0.9v4.5C21.9,5.9,21.5,6.3,21,6.3z"/>
</g>
<g>
	<path class="st0" d="M8.4,9.4C8.2,9.4,8,9.3,7.8,9.1L6.1,7.4c-0.4-0.4-0.4-0.9,0-1.3c0.4-0.4,0.9-0.4,1.3,0l1.7,1.7
		c0.4,0.4,0.4,0.9,0,1.3C8.9,9.3,8.7,9.4,8.4,9.4z"/>
</g>
<g>
	<path class="st0" d="M35.2,36.1c-0.2,0-0.5-0.1-0.6-0.3l-1.7-1.7c-0.4-0.4-0.4-0.9,0-1.3s0.9-0.4,1.3,0l1.7,1.7
		c0.4,0.4,0.4,0.9,0,1.3C35.7,36.1,35.4,36.1,35.2,36.1z"/>
</g>
<g>
	<path class="st0" d="M33.5,9.4c-0.2,0-0.5-0.1-0.6-0.3c-0.4-0.4-0.4-0.9,0-1.3l1.7-1.7c0.4-0.4,0.9-0.4,1.3,0s0.4,0.9,0,1.3
		l-1.7,1.7C34,9.3,33.7,9.4,33.5,9.4z"/>
</g>
<g>
	<path class="st0" d="M6.7,36.1c-0.2,0-0.5-0.1-0.6-0.3c-0.4-0.4-0.4-0.9,0-1.3l1.7-1.7c0.4-0.4,0.9-0.4,1.3,0
		c0.4,0.4,0.4,0.9,0,1.3l-1.7,1.7C7.2,36.1,7,36.1,6.7,36.1z"/>
</g>
<g>
	<path class="st1" d="M21,21.9c-0.5,0-0.9-0.4-0.9-0.9V9.8c0-0.5,0.4-0.9,0.9-0.9s0.9,0.4,0.9,0.9V21C21.9,21.5,21.5,21.9,21,21.9z"
		/>
</g>
<g>
	<path class="st1" d="M26.6,24.7c-0.1,0-0.3,0-0.4-0.1l-5.6-2.8c-0.4-0.2-0.6-0.8-0.4-1.2c0.2-0.4,0.8-0.6,1.2-0.4L27,23
		c0.4,0.2,0.6,0.8,0.4,1.2C27.3,24.5,26.9,24.7,26.6,24.7z"/>
</g>
</svg>
