<?xml version="1.0" encoding="utf-8"?>
<!-- Generator: Adobe Illustrator 22.1.0, SVG Export Plug-In . SVG Version: 6.00 Build 0)  -->
<svg version="1.1" id="OBJECTS" xmlns="http://www.w3.org/2000/svg" xmlns:xlink="http://www.w3.org/1999/xlink" x="0px" y="0px"
	 viewBox="0 0 60 52.3" style="enable-background:new 0 0 60 52.3;" xml:space="preserve">
<style type="text/css">
	.st0{fill:#161616;}
	.st1{fill:#3E81C3;}
</style>
<g>
	<path class="st0" d="M59,52.3H0.9c-0.4,0-0.7-0.2-0.9-0.5s-0.2-0.7,0-1l21.5-37.3c0.3-0.5,0.9-0.6,1.4-0.4c0.5,0.3,0.6,0.9,0.4,1.4
		L2.6,50.3h54.7L29.9,3l-4.3,7.5c-0.3,0.5-0.9,0.6-1.4,0.4c-0.5-0.3-0.6-0.9-0.4-1.4l5.2-9c0.4-0.6,1.4-0.6,1.7,0l29.1,50.3
		c0.2,0.3,0.2,0.7,0,1S59.4,52.3,59,52.3z"/>
</g>
<g>
	<g>
		<path class="st0" d="M51.2,47.8H8.7c-0.4,0-0.7-0.2-0.9-0.5s-0.2-0.7,0-1L29.1,9.5c0.4-0.6,1.4-0.6,1.7,0l21.3,36.8
			c0.2,0.3,0.2,0.7,0,1S51.6,47.8,51.2,47.8z M10.4,45.8h39.1L29.9,12L10.4,45.8z"/>
	</g>
</g>
<g>
	<path class="st1" d="M31.4,39.4v0.2c0,1.1-0.4,1.4-1.4,1.4h-0.2c-1.1,0-1.4-0.3-1.4-1.4v-0.2c0-1.1,0.4-1.4,1.4-1.4H30
		C31.1,38,31.4,38.4,31.4,39.4z M31.3,25.3L31,35.8c0,0.5-0.2,0.7-0.7,0.7h-0.7c-0.5,0-0.7-0.2-0.7-0.7l-0.3-10.4
		c0-0.5,0.2-0.7,0.7-0.7h1.3C31.1,24.6,31.3,24.8,31.3,25.3z"/>
</g>
</svg>
