<?xml version="1.0" encoding="utf-8"?>
<!-- Generator: Adobe Illustrator 22.1.0, SVG Export Plug-In . SVG Version: 6.00 Build 0)  -->
<svg version="1.1" id="Слой_1" xmlns="http://www.w3.org/2000/svg" xmlns:xlink="http://www.w3.org/1999/xlink" x="0px" y="0px"
	 viewBox="0 0 100 100" style="enable-background:new 0 0 100 100;" xml:space="preserve">
<style type="text/css">
	.st0{fill:#8ED0EF;}
	.st1{fill:#646464;}
	.st2{fill:#5A5A5A;}
	.st3{fill:#C8D1FC;}
	.st4{fill:#FFFFFF;}
	.st5{fill:#0081C6;}
	.st6{opacity:0.14;fill:#646464;}
	.st7{fill:#F2F214;}
	.st8{fill:#E3864C;}
	.st9{fill:#B1DCA3;}
	.st10{fill:#503935;}
</style>
<circle class="st0" cx="50" cy="50" r="50"/>
<g>
	<path class="st1" d="M68.8,55.5H58.1l0-0.1c-0.2-0.5-0.7-0.8-1.3-0.7c-0.4,0.1-0.6,0.4-0.7,0.8H43.9c-0.1-0.4-0.3-0.7-0.7-0.8
		c-0.5-0.2-1.1,0.1-1.3,0.7l0,0.1H35v7h4.8l-8,26.5c-0.2,0.5,0.1,1.1,0.7,1.3c0.1,0,0.2,0,0.3,0c0.4,0,0.8-0.3,1-0.7l8.2-27.1h16.1
		l8.2,27.1c0.1,0.4,0.5,0.7,1,0.7c0.1,0,0.2,0,0.3,0c0.5-0.2,0.8-0.7,0.7-1.3l-8-26.5h8.6V55.5z"/>
	<path class="st2" d="M58,55.4c-0.2-0.5-0.7-0.8-1.3-0.7c-0.4,0.1-0.6,0.4-0.7,0.8H43.9c-0.1-0.4-0.3-0.7-0.7-0.8
		c-0.5-0.2-1.1,0.1-1.3,0.7l0,0.1H35v7h4.8l-5,16.5h2.1l5-16.5h16.1l5,16.5h2.1l-5-16.5h8.6v-7H58.1L58,55.4z"/>
	<g>
		<path class="st1" d="M50,53.7c-0.6,0-1.1-3.6-1.1-8v-22c0-4.4,0.5-8,1.1-8s1.1,3.6,1.1,8l0,22C51.1,50.1,50.6,53.7,50,53.7z"/>
	</g>
	<rect x="18.5" y="20.1" class="st3" width="63" height="51.6"/>
	<g>
		<path class="st4" d="M78.7,68.2c0,0.2-0.2,0.4-0.3,0.4l-56.7,0c-0.2,0-0.3-0.2-0.3-0.4l0-44.3c0-0.2,0.2-0.4,0.3-0.4l56.7,0
			c0.2,0,0.3,0.2,0.3,0.4L78.7,68.2z"/>
	</g>
	<g>
		<g>
			<g>
				<rect x="71.2" y="26.5" class="st5" width="1.3" height="1.2"/>
			</g>
			<g>
				<rect x="71.2" y="28.3" class="st6" width="1.3" height="1.2"/>
			</g>
			<g>
				<rect x="71.2" y="30.1" class="st7" width="1.3" height="1.2"/>
			</g>
			<g>
				<rect x="71.2" y="31.9" class="st8" width="1.3" height="1.2"/>
			</g>
			<g>
				<rect x="71.2" y="33.7" class="st9" width="1.3" height="1.2"/>
			</g>
		</g>
		<g>
			<g>
				<ellipse class="st3" cx="74.9" cy="27.1" rx="1.8" ry="0.7"/>
			</g>
			<g>
				<ellipse class="st3" cx="74.9" cy="28.9" rx="1.8" ry="0.7"/>
			</g>
			<g>
				<ellipse class="st3" cx="74.9" cy="30.7" rx="1.8" ry="0.7"/>
			</g>
			<g>
				<ellipse class="st3" cx="74.9" cy="32.5" rx="1.8" ry="0.7"/>
			</g>
			<g>
				<ellipse class="st3" cx="74.9" cy="34.3" rx="1.8" ry="0.7"/>
			</g>
		</g>
	</g>
	<g>
		<g>
			<g>
				<path class="st7" d="M41.6,41.4l-2.8-1.8c2.4-3.7,6.4-5.9,10.7-5.9V37C46.4,37,43.4,38.7,41.6,41.4z"/>
			</g>
			<g>
				<path class="st1" d="M49.6,59.2c-7,0-12.7-5.7-12.7-12.7c0-2.4,0.7-4.8,2-6.8l2.8,1.8c-1,1.5-1.5,3.3-1.5,5.1
					c0,5.2,4.2,9.4,9.4,9.4V59.2z"/>
			</g>
			<g>
				<path class="st5" d="M49.6,59.2v-3.3c3.3,0,6.3-1.7,8-4.4l2.8,1.7C58.1,57,54,59.2,49.6,59.2z"/>
			</g>
			<g>
				<path class="st9" d="M60.4,53.2l-2.8-1.7c0.9-1.5,1.4-3.2,1.4-5c0-1.6-0.4-3.1-1.1-4.4l2.9-1.5c1,1.8,1.5,3.9,1.5,6
					C62.3,48.9,61.7,51.2,60.4,53.2z"/>
			</g>
			<g>
				<g>
					<path class="st8" d="M57.9,42c-1.6-3.1-4.8-5-8.3-5v-3.3c4.7,0,9,2.6,11.2,6.7L57.9,42z"/>
				</g>
			</g>
		</g>
		<g>
			<g>
				<g>
					<path class="st10" d="M40.9,31.9l3.2,5.2l-0.3,0.2l-3.1-5.1h-8.3v-0.4h8.4C40.8,31.8,40.8,31.8,40.9,31.9z"/>
				</g>
			</g>
			<g>
				<g>
					<g>
						<g>
							<path class="st10" d="M43.8,37.8c-0.3,0-0.6-0.3-0.6-0.6c0-0.3,0.3-0.6,0.6-0.6c0.3,0,0.6,0.3,0.6,0.6
								C44.4,37.6,44.2,37.8,43.8,37.8z"/>
							<path class="st10" d="M43.8,36.8c0.2,0,0.4,0.2,0.4,0.4c0,0.2-0.2,0.4-0.4,0.4s-0.4-0.2-0.4-0.4C43.4,37,43.6,36.8,43.8,36.8
								 M43.8,36.6c-0.4,0-0.7,0.3-0.7,0.7s0.3,0.7,0.7,0.7c0.4,0,0.7-0.3,0.7-0.7S44.2,36.6,43.8,36.6L43.8,36.6z"/>
						</g>
					</g>
				</g>
			</g>
		</g>
		<g>
			<g>
				<g>
					<path class="st10" d="M58.7,31.9l-3.2,5.2l0.3,0.2l3.1-5.1l8.8,0v-0.4h-8.9C58.9,31.8,58.8,31.8,58.7,31.9z"/>
				</g>
			</g>
			<g>
				<g>
					<g>
						<g>
							<path class="st10" d="M55.8,37.8c-0.3,0-0.6-0.3-0.6-0.6c0-0.3,0.3-0.6,0.6-0.6s0.6,0.3,0.6,0.6
								C56.3,37.6,56.1,37.8,55.8,37.8z"/>
							<path class="st10" d="M55.8,36.8c0.2,0,0.4,0.2,0.4,0.4c0,0.2-0.2,0.4-0.4,0.4s-0.4-0.2-0.4-0.4C55.3,37,55.5,36.8,55.8,36.8
								 M55.8,36.6c-0.4,0-0.7,0.3-0.7,0.7s0.3,0.7,0.7,0.7s0.7-0.3,0.7-0.7S56.2,36.6,55.8,36.6L55.8,36.6z"/>
						</g>
					</g>
				</g>
			</g>
		</g>
		<g>
			<g>
				<g>
					<path class="st10" d="M36.6,56.6l3.2-5.2l-0.3-0.2l-3.1,5.1h-4v0.4h4.1C36.5,56.7,36.5,56.6,36.6,56.6z"/>
				</g>
			</g>
			<g>
				<g>
					<g>
						<g>
							<path class="st10" d="M39.5,51.8c-0.3,0-0.6-0.3-0.6-0.6c0-0.3,0.3-0.6,0.6-0.6c0.3,0,0.6,0.3,0.6,0.6
								C40.1,51.5,39.9,51.8,39.5,51.8z"/>
							<path class="st10" d="M39.5,50.8c0.2,0,0.4,0.2,0.4,0.4c0,0.2-0.2,0.4-0.4,0.4c-0.2,0-0.4-0.2-0.4-0.4
								C39.1,51,39.3,50.8,39.5,50.8 M39.5,50.5c-0.4,0-0.7,0.3-0.7,0.7c0,0.4,0.3,0.7,0.7,0.7c0.4,0,0.7-0.3,0.7-0.7
								C40.2,50.8,39.9,50.5,39.5,50.5L39.5,50.5z"/>
						</g>
					</g>
				</g>
			</g>
		</g>
		<g>
			<g>
				<g>
					<path class="st10" d="M58.3,61.3l-3.2-5.2l0.3-0.2l3.1,5.1l9.3,0v0.4l-9.4,0C58.4,61.4,58.3,61.3,58.3,61.3z"/>
				</g>
			</g>
			<g>
				<g>
					<g>
						<g>
							<path class="st10" d="M55.3,56.5c-0.3,0-0.6-0.3-0.6-0.6c0-0.3,0.3-0.6,0.6-0.6c0.3,0,0.6,0.3,0.6,0.6
								C55.9,56.2,55.6,56.5,55.3,56.5z"/>
							<path class="st10" d="M55.3,55.5c0.2,0,0.4,0.2,0.4,0.4c0,0.2-0.2,0.4-0.4,0.4s-0.4-0.2-0.4-0.4
								C54.9,55.7,55.1,55.5,55.3,55.5 M55.3,55.2c-0.4,0-0.7,0.3-0.7,0.7c0,0.2,0.1,0.4,0.2,0.5c0.1,0.1,0.3,0.2,0.5,0.2
								c0.4,0,0.7-0.3,0.7-0.7C56,55.5,55.7,55.2,55.3,55.2L55.3,55.2z"/>
						</g>
					</g>
				</g>
			</g>
		</g>
		<rect x="60.7" y="46.2" class="st10" width="7.2" height="0.4"/>
		<g>
			<g>
				<g>
					<g>
						<path class="st10" d="M60.6,47c-0.3,0-0.6-0.3-0.6-0.6c0-0.3,0.3-0.6,0.6-0.6s0.6,0.3,0.6,0.6C61.2,46.8,60.9,47,60.6,47z"/>
						<path class="st10" d="M60.6,46c0.2,0,0.4,0.2,0.4,0.4c0,0.2-0.2,0.4-0.4,0.4c-0.2,0-0.4-0.2-0.4-0.4
							C60.2,46.2,60.4,46,60.6,46 M60.6,45.7c-0.4,0-0.7,0.3-0.7,0.7c0,0.4,0.3,0.7,0.7,0.7c0.4,0,0.7-0.3,0.7-0.7
							C61.3,46.1,61,45.7,60.6,45.7L60.6,45.7z"/>
					</g>
				</g>
			</g>
		</g>
		<rect x="32.3" y="29.9" class="st7" width="4.9" height="1.3"/>
		<rect x="63.7" y="29.9" class="st8" width="4.1" height="1.3"/>
		<rect x="63.7" y="44.3" class="st9" width="4.1" height="1.3"/>
		<rect x="63.7" y="59" class="st5" width="4.1" height="1.3"/>
		<rect x="32.3" y="54.2" class="st1" width="2.8" height="1.3"/>
	</g>
	<path class="st5" d="M82.9,20.1c0,0.6-0.5,1-1,1H18.1c-0.6,0-1-0.5-1-1v-0.8c0-0.6,0.5-1,1-1h63.7c0.6,0,1,0.5,1,1V20.1z"/>
	<circle class="st3" cx="49.6" cy="46.6" r="7.1"/>
	<path class="st5" d="M82.9,72.9c0,0.6-0.5,1-1,1H18.1c-0.6,0-1-0.5-1-1v-0.8c0-0.6,0.5-1,1-1h63.7c0.6,0,1,0.5,1,1V72.9z"/>
</g>
</svg>
