<?xml version="1.0" encoding="utf-8"?>
<!-- Generator: Adobe Illustrator 22.1.0, SVG Export Plug-In . SVG Version: 6.00 Build 0)  -->
<svg version="1.1" id="OBJECTS" xmlns="http://www.w3.org/2000/svg" xmlns:xlink="http://www.w3.org/1999/xlink" x="0px" y="0px"
	 viewBox="0 0 54 50" style="enable-background:new 0 0 54 50;" xml:space="preserve">
<style type="text/css">
	.st0{fill:#222222;}
	.st1{fill:#6892CA;}
</style>
<g>
	<path class="st0" d="M33.3,30.4c-3.6,0-7-1.4-9.6-3.9c-3.2-3.2-4.6-7.7-3.7-12.2c0.1-0.6,0.7-0.9,1.2-0.8c0.6,0.1,0.9,0.7,0.8,1.2
		c-0.8,3.8,0.4,7.6,3.1,10.3c2.2,2.1,5,3.3,8.1,3.3c3.1,0,5.9-1.2,8.1-3.3s3.4-5,3.4-8c0-3-1.2-5.9-3.4-8c-3.1-3.1-7.8-4.1-12-2.7
		c-0.5,0.2-1.1-0.1-1.3-0.6c-0.2-0.5,0.1-1.1,0.6-1.3c4.9-1.8,10.5-0.5,14.2,3.1c2.6,2.5,4,5.9,4,9.5c0,3.6-1.4,7-4,9.5
		C40.3,29,36.9,30.4,33.3,30.4z"/>
</g>
<g>
	<path class="st0" d="M23.4,10.4c-0.2,0-0.4-0.1-0.6-0.2c-0.5-0.3-0.5-1-0.2-1.4c0.3-0.4,0.7-0.9,1.1-1.3c0.4-0.4,1.1-0.4,1.5,0
		c0.4,0.4,0.4,1,0,1.4c-0.3,0.3-0.7,0.7-1,1.1C24,10.3,23.7,10.4,23.4,10.4z"/>
</g>
<g>
	<path class="st0" d="M33.3,33.9c-4.4,0-8.8-1.7-12.1-5c-6.7-6.6-6.7-17.4,0-24c6.7-6.6,17.5-6.6,24.2,0c6.7,6.6,6.7,17.4,0,24
		C42.1,32.3,37.7,33.9,33.3,33.9z M33.3,2c-3.9,0-7.7,1.5-10.6,4.4c-5.9,5.8-5.9,15.3,0,21.1c5.9,5.8,15.4,5.8,21.3,0
		c5.9-5.8,5.9-15.3,0-21.1C41,3.5,37.2,2,33.3,2z"/>
</g>
<g>
	<path class="st0" d="M15.6,35.6c-0.3,0-0.5-0.1-0.7-0.3c-0.4-0.4-0.4-1,0-1.4l6.4-6.3c0.4-0.4,1.1-0.4,1.5,0c0.4,0.4,0.4,1,0,1.4
		l-6.4,6.3C16.1,35.5,15.9,35.6,15.6,35.6z"/>
</g>
<g>
	<path class="st0" d="M6.6,40.9c-0.3,0-0.5-0.1-0.7-0.3c-0.4-0.4-0.4-1,0-1.4L8,37.1c0.4-0.4,1.1-0.4,1.5,0c0.4,0.4,0.4,1,0,1.4
		l-2.1,2.1C7.2,40.8,6.9,40.9,6.6,40.9z"/>
</g>
<g>
	<path class="st0" d="M3.5,50c-0.9,0-1.8-0.3-2.5-1c-0.7-0.7-1-1.5-1-2.5c0-0.9,0.4-1.8,1-2.5l2.5-2.5c0.4-0.4,1.1-0.4,1.5,0
		c0.4,0.4,0.4,1,0,1.4l-2.5,2.5c-0.3,0.3-0.4,0.6-0.4,1c0,0.4,0.2,0.8,0.4,1c0.6,0.6,1.5,0.6,2.1,0l7-6.9c0.4-0.4,1.1-0.4,1.5,0
		c0.4,0.4,0.4,1,0,1.4L6,49C5.3,49.7,4.4,50,3.5,50z"/>
</g>
<g>
	<path class="st0" d="M14.5,40.1c-0.3,0-0.5-0.1-0.7-0.3c-0.4-0.4-0.4-1,0-1.4l1.1-1.1c0.6-0.6,0.6-1.5,0-2c-0.6-0.6-1.5-0.6-2.1,0
		l-1.1,1.1c-0.4,0.4-1.1,0.4-1.5,0c-0.4-0.4-0.4-1,0-1.4l1.1-1.1c1.4-1.4,3.6-1.4,5,0c1.4,1.4,1.4,3.6,0,4.9l-1.1,1.1
		C15,40,14.8,40.1,14.5,40.1z"/>
</g>
<g>
	<path class="st0" d="M14.9,44.4c-0.7,0-1.3-0.3-1.9-0.8L7,37.5c-0.4-0.4-0.4-1,0-1.4c0.4-0.4,1.1-0.4,1.5,0l6.1,6.1
		c0.1,0.1,0.3,0.2,0.4,0.2c0.1,0,0.3,0,0.4-0.2c0.2-0.2,0.2-0.6,0-0.8l-6.6-6.6c-0.1-0.1-0.3-0.2-0.4-0.2c-0.1,0-0.3,0-0.4,0.2
		c-0.4,0.4-1.1,0.4-1.5,0c-0.4-0.4-0.4-1,0-1.4c1-1,2.7-1,3.7,0l6.6,6.6c1,1,1,2.7,0,3.7C16.3,44.1,15.6,44.4,14.9,44.4z"/>
</g>
<g>
	<path class="st1" d="M24.5,26.8c-0.3,0-0.5-0.1-0.7-0.3c-0.4-0.4-0.4-1,0-1.4l4.8-4.8c0.2-0.2,0.4-0.3,0.7-0.3l5.6-0.4l4.6-8
		c0.2-0.4,0.7-0.6,1.2-0.5l5.2,1.4c0.6,0.1,0.9,0.7,0.7,1.2c-0.1,0.5-0.7,0.9-1.3,0.7l-4.5-1.2L36.3,21c-0.2,0.3-0.5,0.5-0.8,0.5
		L29.7,22l-4.5,4.5C25,26.7,24.7,26.8,24.5,26.8z"/>
</g>
<g>
	<path class="st1" d="M48.6,6.2c-0.5,0-1-0.4-1-0.9c-0.1-0.6,0.3-1.1,0.9-1.1l4-0.4C53,3.6,53.5,4,53.5,4.6s-0.3,1.1-0.9,1.1l-4,0.4
		C48.6,6.2,48.6,6.2,48.6,6.2z"/>
</g>
<g>
	<path class="st1" d="M53,9.7c-0.5,0-1-0.4-1-0.9l-0.4-3.9c-0.1-0.6,0.3-1.1,0.9-1.1C53,3.6,53.5,4,53.5,4.6L54,8.5
		c0.1,0.6-0.3,1.1-0.9,1.1C53,9.7,53,9.7,53,9.7z"/>
</g>
<g>
	<path class="st1" d="M45.6,14.4c-0.2,0-0.5-0.1-0.6-0.2c-0.4-0.4-0.5-1-0.2-1.4l6.9-8.6c0.4-0.4,1-0.5,1.5-0.2
		c0.4,0.4,0.5,1,0.2,1.4L46.4,14C46.2,14.2,45.9,14.4,45.6,14.4z"/>
</g>
</svg>
