<?xml version="1.0" encoding="utf-8"?>
<!-- Generator: Adobe Illustrator 22.1.0, SVG Export Plug-In . SVG Version: 6.00 Build 0)  -->
<svg version="1.1" id="OBJECTS" xmlns="http://www.w3.org/2000/svg" xmlns:xlink="http://www.w3.org/1999/xlink" x="0px" y="0px"
	 viewBox="0 0 40 50" style="enable-background:new 0 0 40 50;" xml:space="preserve">
<style type="text/css">
	.st0{fill:#222222;}
	.st1{fill:#6892CA;}
</style>
<g>
	<path class="st0" d="M7,13.6c-3.9,0-7-3.1-7-6.9s3.2-6.9,7-6.9c0.6,0,1,0.5,1,1S7.6,2,7,2C4.3,2,2.1,4.1,2.1,6.8
		c0,2.7,2.2,4.8,4.9,4.8c2.7,0,4.9-2.2,4.9-4.8c0-0.6,0.5-1,1-1c0.6,0,1,0.5,1,1C14.1,10.6,10.9,13.6,7,13.6z"/>
</g>
<g>
	<path class="st0" d="M7,49.9c-3.9,0-7-3.1-7-6.9c0-3.8,3.2-6.9,7-6.9c0.6,0,1,0.5,1,1c0,0.6-0.5,1-1,1c-2.7,0-4.9,2.2-4.9,4.8
		c0,2.7,2.2,4.8,4.9,4.8c2.7,0,4.9-2.2,4.9-4.8c0-0.6,0.5-1,1-1c0.6,0,1,0.5,1,1C14.1,46.8,10.9,49.9,7,49.9z"/>
</g>
<g>
	<path class="st0" d="M7,31.8c-3.9,0-7-3.1-7-6.9S3.2,18,7,18c0.6,0,1,0.5,1,1s-0.5,1-1,1c-2.7,0-4.9,2.2-4.9,4.8s2.2,4.8,4.9,4.8
		c2.7,0,4.9-2.2,4.9-4.8c0-0.6,0.5-1,1-1c0.6,0,1,0.5,1,1C14.1,28.7,10.9,31.8,7,31.8z"/>
</g>
<g>
	<path class="st1" d="M6.2,9.9C6.2,9.9,6.2,9.9,6.2,9.9c-0.4,0-0.7-0.2-0.9-0.5l-2-3.1C3,5.8,3.1,5.2,3.6,4.9
		c0.5-0.3,1.1-0.2,1.4,0.3L6.3,7l4.9-6.7c0.3-0.5,1-0.6,1.5-0.2c0.5,0.3,0.6,1,0.2,1.4L7.1,9.4C6.9,9.7,6.6,9.9,6.2,9.9z"/>
</g>
<g>
	<path class="st1" d="M6.2,46.1C6.2,46.1,6.2,46.1,6.2,46.1c-0.4,0-0.7-0.2-0.9-0.5l-2-3.1c-0.3-0.5-0.2-1.1,0.3-1.4
		c0.5-0.3,1.1-0.2,1.4,0.3l1.2,1.8l4.9-6.7c0.3-0.5,1-0.6,1.5-0.2c0.5,0.3,0.6,1,0.2,1.4l-5.7,7.9C6.9,46,6.6,46.1,6.2,46.1z"/>
</g>
<g>
	<path class="st1" d="M6.2,28C6.2,28,6.2,28,6.2,28c-0.4,0-0.7-0.2-0.9-0.5l-2-3.1C3,24,3.1,23.3,3.6,23c0.5-0.3,1.1-0.2,1.4,0.3
		l1.2,1.8l4.9-6.7c0.3-0.5,1-0.6,1.5-0.2c0.5,0.3,0.6,1,0.2,1.4l-5.7,7.9C6.9,27.8,6.6,28,6.2,28z"/>
</g>
<g>
	<path class="st0" d="M39,7.8H19.9c-0.6,0-1-0.5-1-1s0.5-1,1-1H39c0.6,0,1,0.5,1,1S39.5,7.8,39,7.8z"/>
</g>
<g>
	<path class="st0" d="M39,25.9H19.9c-0.6,0-1-0.5-1-1c0-0.6,0.5-1,1-1H39c0.6,0,1,0.5,1,1C40,25.5,39.5,25.9,39,25.9z"/>
</g>
<g>
	<path class="st0" d="M39,44.1H19.9c-0.6,0-1-0.5-1-1c0-0.6,0.5-1,1-1H39c0.6,0,1,0.5,1,1C40,43.6,39.5,44.1,39,44.1z"/>
</g>
</svg>
