<?xml version="1.0" encoding="utf-8"?>
<!-- Generator: Adobe Illustrator 22.1.0, SVG Export Plug-In . SVG Version: 6.00 Build 0)  -->
<svg version="1.1" id="Слой_1" xmlns="http://www.w3.org/2000/svg" xmlns:xlink="http://www.w3.org/1999/xlink" x="0px" y="0px"
	 viewBox="0 0 361 131" style="enable-background:new 0 0 361 131;" xml:space="preserve">
<style type="text/css">
	.st0{fill:#0081C6;}
</style>
<path class="st0" d="M358.2,56.5l-21.4-2.5c-4.7-0.5-8.6-3.2-10.3-6.9L314,19.6c-6-13.1-21.6-21.1-38-19.3L122.5,18.5L11.7,32.4
	C5.1,32.7,0,37.3,0,42.9l0.1,40.9l3.2,38.4c0.4,5,5.4,8.9,11.3,8.7l182-4.2l114-2c7.1-0.7,12.1-6.3,10.9-12.3l-4.7-25.2
	c-0.8-4.4,1.8-8.8,6.6-10.8l35.8-14.8C362.1,60.5,361.4,56.8,358.2,56.5z"/>
</svg>
