<?xml version="1.0" encoding="utf-8"?>
<!-- Generator: Adobe Illustrator 22.1.0, SVG Export Plug-In . SVG Version: 6.00 Build 0)  -->
<svg version="1.1" id="Слой_1" xmlns="http://www.w3.org/2000/svg" xmlns:xlink="http://www.w3.org/1999/xlink" x="0px" y="0px"
	 viewBox="0 0 100 100" style="enable-background:new 0 0 100 100;" xml:space="preserve">
<style type="text/css">
	.st0{fill:#8ED0EF;}
	.st1{fill:#E59A77;}
	.st2{fill:#F2F214;}
	.st3{fill:#3E81C3;}
	.st4{fill:#FFAC83;}
	.st5{fill:#FFFFFF;}
	.st6{fill:#646464;}
</style>
<circle class="st0" cx="50" cy="50" r="50"/>
<g>
	<g>
		<path class="st1" d="M52.9,29.7l2.8-4.9l8.8,5.5c-0.6,2.2,2.9,6.1,2.9,6.1l4.8-2.9L59,20.7l-7.6-1.2c0,0-6.7,12-3.9,13.6
			C50.3,34.7,52.9,29.7,52.9,29.7z"/>
		<g>
			<path class="st2" d="M51.4,58.6l0.1-12.7l-4.7,0l0,4.3l0.8,0.4l0,0.1l0,1.7l1.5,0.9c0,0-1,0.7-1.5,1l0,1.4l1.1,1l-1.2,0.6l0,1.2
				l1.2,2.8L51.4,58.6z"/>
			<path class="st3" d="M49,29.8c-4,0-7.2,3.2-7.2,7.1c0,2.8,1.6,5.3,4,6.5l0,2.5l1,0l4.7,0l0.6,0l0-2.5c2.4-1.2,4-3.6,4.1-6.4
				C56.2,33.1,53,29.8,49,29.8z M51.2,33.6c0,1.2-1,2.2-2.2,2.2c-1.2,0-2.2-1-2.2-2.2c0-1.2,1-2.2,2.2-2.2
				C50.2,31.4,51.2,32.4,51.2,33.6z"/>
		</g>
		<path class="st4" d="M45.2,35.3c-3.1-1.4,2.6-20.5,8.9-20s27.3,18.8,27.3,18.8v6.1c-1.7,1.6-5,5.2-9.5,5.2c-4.6,0-23-4.3-22.6-7.1
			s7.5-2.8,10.5-2.5c3,0.3,7.5,0.7,7.5,0.7l-0.5-6.1l-12.6-8.2C54.3,22.1,48.1,36.7,45.2,35.3z"/>
		<polygon class="st5" points="79.7,44.9 82.6,28 94,30 96.2,47 		"/>
		<path class="st3" d="M88,51.3l12,1.6C100,51.9,100,51,100,50c0-7.7-1.8-15-4.9-21.6H88V51.3z"/>
		<g>
			<path class="st1" d="M45.4,72.1L42.6,77l-8.8-5.5c0.6-2.2-2.9-6.1-2.9-6.1l-4.8,2.9l13.1,12.9l7.6,1.2c0,0,6.7-12,3.9-13.6
				C47.9,67.1,45.4,72.1,45.4,72.1z"/>
			<path class="st4" d="M53,66.4c3.1,1.4-2.6,20.5-8.9,20C37.8,86,16.8,67.7,16.8,67.7v-6.1c1.7-1.6,5-5.2,9.5-5.2s23,4.3,22.6,7.1
				s-7.5,2.8-10.5,2.5c-3-0.3-7.5-0.7-7.5-0.7l0.5,6.1l12.6,8.2C43.9,79.7,50.1,65.1,53,66.4z"/>
			<polygon class="st5" points="18.5,56.9 15.6,73.8 6.8,72.3 2.1,54.8 			"/>
			<path class="st6" d="M5.8,73.4h4.5V50.5L0,49.2c0,0.3,0,0.5,0,0.8C0,58.4,2.1,66.4,5.8,73.4z"/>
		</g>
	</g>
</g>
</svg>
