<?xml version="1.0" encoding="utf-8"?>
<!-- Generator: Adobe Illustrator 22.1.0, SVG Export Plug-In . SVG Version: 6.00 Build 0)  -->
<svg version="1.1" id="OBJECTS" xmlns="http://www.w3.org/2000/svg" xmlns:xlink="http://www.w3.org/1999/xlink" x="0px" y="0px"
	 viewBox="0 0 52.3 52.3" style="enable-background:new 0 0 52.3 52.3;" xml:space="preserve">
<style type="text/css">
	.st0{fill:#161616;}
	.st1{fill:#3E81C3;}
</style>
<g>
	<path class="st0" d="M26.2,14c-3.9,0-7-3.1-7-7s3.1-7,7-7s7,3.1,7,7S30,14,26.2,14z M26.2,2c-2.8,0-5,2.2-5,5s2.2,5,5,5s5-2.2,5-5
		S28.9,2,26.2,2z"/>
</g>
<g>
	<path class="st0" d="M7,33.1c-3.9,0-7-3.1-7-7s3.1-7,7-7s7,3.1,7,7S10.9,33.1,7,33.1z M7,21.1c-2.8,0-5,2.2-5,5s2.2,5,5,5
		s5-2.2,5-5S9.8,21.1,7,21.1z"/>
</g>
<g>
	<path class="st0" d="M45.3,33.1c-3.9,0-7-3.1-7-7s3.1-7,7-7s7,3.1,7,7S49.2,33.1,45.3,33.1z M45.3,21.1c-2.8,0-5,2.2-5,5s2.2,5,5,5
		s5-2.2,5-5S48.1,21.1,45.3,21.1z"/>
</g>
<g>
	<path class="st0" d="M26.2,52.3c-3.9,0-7-3.1-7-7s3.1-7,7-7s7,3.1,7,7S30,52.3,26.2,52.3z M26.2,40.3c-2.8,0-5,2.2-5,5s2.2,5,5,5
		s5-2.2,5-5S28.9,40.3,26.2,40.3z"/>
</g>
<g>
	<path class="st1" d="M26.2,35.9c-5.5,0-9.9-4.4-9.9-9.9c0-5.5,4.4-9.9,9.9-9.9s9.9,4.4,9.9,9.9C36.1,31.5,31.6,35.9,26.2,35.9z
		 M26.2,18.1c-4.4,0-7.9,3.6-7.9,7.9s3.6,7.9,7.9,7.9s7.9-3.6,7.9-7.9S30.5,18.1,26.2,18.1z"/>
</g>
</svg>
