<?xml version="1.0" encoding="utf-8"?>
<!-- Generator: Adobe Illustrator 22.1.0, SVG Export Plug-In . SVG Version: 6.00 Build 0)  -->
<svg version="1.1" id="OBJECTS" xmlns="http://www.w3.org/2000/svg" xmlns:xlink="http://www.w3.org/1999/xlink" x="0px" y="0px"
	 viewBox="0 0 42 42" style="enable-background:new 0 0 42 42;" xml:space="preserve">
<style type="text/css">
	.st0{fill:#6791C9;}
	.st1{fill:#222222;}
</style>
<g>
	<g>
		<g>
			<g>
				<path class="st0" d="M21,40.9c-0.2,0-0.4-0.1-0.6-0.2l-1.7-1.4c-0.8-0.6-1.8-1.3-3-2.1C12.2,34.9,7.8,32,4.7,27
					C3.1,24.2,2,21,1.6,17.7c-0.4-3.8,0-8,1.2-12.5c0,0,0-0.1,0-0.1C3.2,4.1,4.1,1.5,6.5,1l0.3-0.1c0.1,0,0.1,0,0.2,0h0.3
					c1.4,0,2.2,0.7,3,1.5c0.6,0.6,1.6,1.5,2.6,2.2c1.4,1,2,1,2,1c0.8-0.1,1.7-1.3,2.4-2.2C17.4,3,17.7,2.6,18,2.3
					c0.9-0.9,1.9-1.4,3-1.4c1.1,0,2.1,0.5,3,1.4c0.3,0.3,0.6,0.7,0.9,1.1c0.6,0.8,1.6,2.1,2.4,2.2c0,0,0.7,0,2.2-1.1
					c1.1-0.8,2.1-1.8,2.6-2.2c0.1-0.1,0.2-0.2,0.3-0.3c0.7-0.7,1.5-1,2.5-1c0,0,0.1,0,0.1,0C36.3,1,38,1.8,39.1,5c0,0,0,0.1,0,0.1
					c0,0,0,0.1,0,0.1c1.2,4.5,1.6,8.7,1.2,12.5C40,21,38.9,24.2,37.3,27c-3,5-7.4,7.9-11,10.3c-1.1,0.8-2.2,1.5-3,2.1
					c0,0-0.1,0.1-0.1,0.1l-1.7,1.3C21.4,40.8,21.2,40.9,21,40.9z M7,2.7l-0.2,0C5.9,3,5.2,3.9,4.6,5.6C3.5,9.9,3,13.9,3.4,17.5
					c0.3,3.1,1.3,6,2.8,8.6c2.8,4.7,7,7.5,10.4,9.7c1.2,0.8,2.3,1.5,3.1,2.2l1.2,0.9l1.1-0.9c0.9-0.7,2-1.5,3.2-2.2
					c3.4-2.3,7.6-5.1,10.4-9.7c1.6-2.6,2.5-5.4,2.8-8.6c0.4-3.5,0-7.5-1.2-11.8l0-0.1c-0.4-1.3-1.2-2.8-2.5-2.9l-0.1,0
					c-0.7,0-1.1,0.4-1.2,0.5l-0.3,0.2C32.8,4,31.7,5,30.5,5.9c-1.8,1.3-2.8,1.5-3.3,1.5c-0.1,0-0.1,0-0.2,0
					c-1.5-0.2-2.7-1.7-3.6-2.8c-0.3-0.3-0.5-0.7-0.8-0.9c-0.2-0.2-0.8-0.8-1.7-0.8c-0.9,0-1.5,0.6-1.7,0.8c-0.2,0.3-0.5,0.6-0.8,0.9
					c-0.9,1.1-2.1,2.6-3.6,2.8c0,0-0.2,0-0.2,0c-0.5,0-1.5-0.2-3-1.3C10.6,5.2,9.6,4.3,9,3.7c-0.7-0.7-1.1-1-1.8-1H7z"/>
			</g>
		</g>
		<g>
			<g>
				<path class="st1" d="M21,34.6c-0.2,0-0.4-0.1-0.5-0.2c-0.6-0.4-1.3-0.9-2-1.4c-1.6-1-3.4-2.2-5.1-3.7c-1.9-1.6-3.3-3.2-4.4-5
					c-1.3-2.2-2.1-4.5-2.4-7.2c-0.3-2.6-0.1-5.6,0.7-8.8C7.3,8,7.6,7.7,7.9,7.6c0.3-0.1,0.6,0,0.9,0.2c2.6,2.1,4.7,3,6.6,2.7
					c2.3-0.3,4-1.9,5-3.1c0.3-0.4,1-0.4,1.4,0c1,1.2,2.6,2.8,5,3.1c1.9,0.2,4.1-0.7,6.6-2.7c0.2-0.2,0.6-0.3,0.9-0.1
					c0.3,0.1,0.5,0.3,0.6,0.7c0.7,3.2,0.9,6.2,0.6,8.8l0,0c-0.3,2.7-1.1,5.1-2.4,7.2c-1.1,1.8-2.5,3.4-4.4,5
					c-1.7,1.4-3.5,2.6-5.1,3.7c-0.7,0.5-1.4,0.9-2,1.4C21.4,34.5,21.2,34.6,21,34.6z M8.7,10.1c-0.4,2.5-0.6,4.8-0.3,6.9
					c0.3,2.4,1,4.5,2.1,6.5c1,1.6,2.3,3.1,4,4.6c1.6,1.4,3.3,2.5,4.9,3.5c0.5,0.3,1,0.7,1.5,1c0.5-0.3,1-0.7,1.5-1
					c1.5-1,3.3-2.2,4.9-3.5c1.7-1.5,3.1-3,4-4.6c1.2-2,1.9-4.1,2.1-6.5l0,0c0.2-2.1,0.1-4.4-0.3-6.8c-2.5,1.8-4.8,2.5-6.8,2.2
					c-2.5-0.3-4.2-1.7-5.4-3c-1.2,1.3-3,2.7-5.4,3C13.5,12.6,11.2,11.9,8.7,10.1z"/>
			</g>
		</g>
	</g>
</g>
</svg>
