<?xml version="1.0" encoding="utf-8"?>
<!-- Generator: Adobe Illustrator 22.1.0, SVG Export Plug-In . SVG Version: 6.00 Build 0)  -->
<svg version="1.1" id="Слой_1" xmlns="http://www.w3.org/2000/svg" xmlns:xlink="http://www.w3.org/1999/xlink" x="0px" y="0px"
	 viewBox="0 0 369 167" style="enable-background:new 0 0 369 167;" xml:space="preserve">
<style type="text/css">
	.st0{fill:#0081C6;}
</style>
<path class="st0" d="M1.8,122.4L48,106.8c5.7-1.9,10-6.3,11.8-11.8L75.4,47c2.5-7.7,9.3-13.2,17.5-14.2L244.1,10l106-9.9
	c10.7-1,19.7,7.7,18.8,18.1l-7.8,87.4l-6.5,46.5c-1.3,9.1-9.8,15.7-19.2,14.9l-130.6-11.1L62.8,139.9c-3.3-0.3-5.8-3.1-5.6-6.3v0
	c0.2-5.4-4.4-9.8-10-9.4l-44.4,3.1C-0.2,127.6-1.1,123.4,1.8,122.4z"/>
</svg>
