<?xml version="1.0" encoding="utf-8"?>
<!-- Generator: Adobe Illustrator 22.1.0, SVG Export Plug-In . SVG Version: 6.00 Build 0)  -->
<svg version="1.1" id="OBJECTS" xmlns="http://www.w3.org/2000/svg" xmlns:xlink="http://www.w3.org/1999/xlink" x="0px" y="0px"
	 viewBox="0 0 42 46.1" style="enable-background:new 0 0 42 46.1;" xml:space="preserve">
<style type="text/css">
	.st0{fill:#6791C9;}
	.st1{fill:#222222;}
</style>
<g>
	<path class="st0" d="M30.6,46.1H11.4c-2.1,0-3.9-1.7-3.9-3.8V11.9c0-2.1,1.7-3.8,3.9-3.8h19.3c2.1,0,3.9,1.7,3.9,3.8v30.4
		C34.5,44.4,32.8,46.1,30.6,46.1z M11.4,9.6c-1.3,0-2.3,1-2.3,2.3v30.4c0,1.3,1,2.3,2.3,2.3h19.3c1.3,0,2.3-1,2.3-2.3V11.9
		c0-1.3-1-2.3-2.3-2.3H11.4z"/>
</g>
<g>
	<ellipse class="st0" cx="21" cy="13.6" rx="1.9" ry="1.9"/>
</g>
<g>
	<path class="st0" d="M21,14.4c-0.4,0-0.8-0.3-0.8-0.8c0-0.4,0.3-0.8,0.8-0.8c3.2,0,5.7-2.5,5.7-5.6c0-3.1-2.6-5.6-5.7-5.6
		s-5.7,2.5-5.7,5.6c0,0.5,0.1,0.9,0.2,1.4c0.1,0.4-0.1,0.8-0.6,0.9C14.5,9.7,14.1,9.4,14,9c-0.1-0.6-0.2-1.2-0.2-1.8
		c0-3.9,3.3-7.1,7.3-7.1s7.3,3.2,7.3,7.1C28.3,11.2,25,14.4,21,14.4z"/>
</g>
<path class="st1" d="M20,31.4c2,0,3.6-0.4,4.7-1.3c1.1-0.9,1.7-2.2,1.7-3.8c0-1.6-0.5-2.8-1.5-3.6c-1-0.8-2.5-1.2-4.5-1.2h-4.7v7.8
	h-2.5v2.1h2.5v1.3h-2.5v2.1h2.5v2.7h2.6v-2.7H21v-2.1h-2.7v-1.2H20z M18.3,23.6h1.8c1.2,0,2.1,0.2,2.7,0.7c0.6,0.5,0.9,1.1,0.9,2
	c0,1-0.3,1.7-1,2.2c-0.6,0.5-1.6,0.7-3,0.7h-1.4h0V23.6z"/>
</svg>
