<?xml version="1.0" encoding="utf-8"?>
<!-- Generator: Adobe Illustrator 22.1.0, SVG Export Plug-In . SVG Version: 6.00 Build 0)  -->
<svg version="1.1" id="OBJECTS" xmlns="http://www.w3.org/2000/svg" xmlns:xlink="http://www.w3.org/1999/xlink" x="0px" y="0px"
	 viewBox="0 0 48.6 52.3" style="enable-background:new 0 0 48.6 52.3;" xml:space="preserve">
<style type="text/css">
	.st0{fill:#161616;}
	.st1{fill:#3E81C3;}
</style>
<g>
	<path class="st0" d="M47.6,52.3H1c-0.6,0-1-0.4-1-1V1c0-0.6,0.4-1,1-1h46.6c0.6,0,1,0.4,1,1v50.3C48.6,51.9,48.2,52.3,47.6,52.3z
		 M2,50.3h44.6V2H2V50.3z"/>
</g>
<g>
	<path class="st0" d="M36.4,41.1c-0.6,0-1-0.4-1-1V1c0-0.6,0.4-1,1-1s1,0.4,1,1v39.2C37.4,40.7,36.9,41.1,36.4,41.1z"/>
</g>
<g>
	<path class="st0" d="M42,52.3c-0.6,0-1-0.4-1-1V1c0-0.6,0.4-1,1-1s1,0.4,1,1v50.3C43,51.9,42.5,52.3,42,52.3z"/>
</g>
<g>
	<path class="st0" d="M25.2,52.3c-0.1,0-0.3,0-0.4-0.1c-0.4-0.2-0.6-0.5-0.6-0.9V40.1c0-0.6,0.4-1,1-1h11.2c0.4,0,0.8,0.2,0.9,0.6
		c0.2,0.4,0.1,0.8-0.2,1.1L25.9,52C25.7,52.2,25.5,52.3,25.2,52.3z M26.2,41.1v7.8l7.8-7.8H26.2z"/>
</g>
<g>
	<path class="st1" d="M28.1,8H9.3c-0.6,0-1-0.4-1-1s0.4-1,1-1h18.9c0.6,0,1,0.4,1,1S28.7,8,28.1,8z"/>
</g>
<g>
	<path class="st1" d="M28.1,13.6H9.3c-0.6,0-1-0.4-1-1s0.4-1,1-1h18.9c0.6,0,1,0.4,1,1S28.7,13.6,28.1,13.6z"/>
</g>
<g>
	<path class="st1" d="M28.1,19.2H9.3c-0.6,0-1-0.4-1-1s0.4-1,1-1h18.9c0.6,0,1,0.4,1,1S28.7,19.2,28.1,19.2z"/>
</g>
<g>
	<path class="st1" d="M28.1,29.9H9.3c-0.6,0-1-0.4-1-1s0.4-1,1-1h18.9c0.6,0,1,0.4,1,1S28.7,29.9,28.1,29.9z"/>
</g>
<g>
	<path class="st1" d="M28.1,35.5H9.3c-0.6,0-1-0.4-1-1s0.4-1,1-1h18.9c0.6,0,1,0.4,1,1S28.7,35.5,28.1,35.5z"/>
</g>
<g>
	<path class="st1" d="M20.4,41.1H9.3c-0.6,0-1-0.4-1-1s0.4-1,1-1h11.1c0.6,0,1,0.4,1,1S20.9,41.1,20.4,41.1z"/>
</g>
</svg>
