<?xml version="1.0" encoding="utf-8"?>
<!-- Generator: Adobe Illustrator 22.1.0, SVG Export Plug-In . SVG Version: 6.00 Build 0)  -->
<svg version="1.1" id="Слой_1" xmlns="http://www.w3.org/2000/svg" xmlns:xlink="http://www.w3.org/1999/xlink" x="0px" y="0px"
	 viewBox="0 0 100 100" style="enable-background:new 0 0 100 100;" xml:space="preserve">
<style type="text/css">
	.st0{fill:#8ED0EF;}
	.st1{fill:#C8D1FC;}
	.st2{fill:#FFFFFF;}
	.st3{fill:#646464;}
	.st4{fill:#0081C6;}
</style>
<g>
	<circle class="st0" cx="50" cy="50" r="50"/>
</g>
<g>
	<g>
		<path class="st1" d="M69.2,25c0-0.9,0.1-1.9,0.4-2.7c-6.5-1.1-15.3-2.1-20.1-2.1c-4.7,0-13,0.9-19.5,2c0.2,0.9,0.4,1.8,0.4,2.8
			c0,5.7-4.5,10.3-10.1,10.6c0.7,9.4,3.1,22.1,6,29C31,76,47.3,86.1,49.5,87.8C51.7,86.1,68,76,72.7,64.6c2.9-6.9,5.3-19.7,6-29.1
			C73.4,35,69.2,30.5,69.2,25z"/>
	</g>
</g>
<g>
	<g>
		<path class="st2" d="M49.5,20.2c-4.7,0-13,0.9-19.5,2c0.2,0.9,0.4,1.8,0.4,2.8c0,5.7-4.5,10.3-10.1,10.6c0.7,9.4,3.1,22.1,6,29
			C31,76,47.3,86.1,49.5,87.8V20.2z"/>
	</g>
</g>
<g>
	<path class="st3" d="M43.1,50.1l4,5.3c0.1,0.1,0.2,0.2,0.2,0.3c0,0.1,0,0.2,0,0.3c0,0.1,0,0.3-0.1,0.4c-0.1,0.1-0.1,0.3-0.2,0.4
		c-0.1,0.1-0.2,0.2-0.4,0.3c-0.2,0.1-0.3,0.1-0.5,0.1c-0.4,0-0.8-0.2-1.1-0.5L41.4,52l-0.3,0.4v3.8c0,0.3-0.1,0.6-0.4,0.8
		c-0.3,0.2-0.6,0.4-0.9,0.4c-0.4,0-0.7-0.1-0.9-0.4s-0.4-0.5-0.4-0.8V45.2c0-0.3,0.1-0.6,0.4-0.8c0.3-0.2,0.6-0.3,0.9-0.3
		c0.4,0,0.7,0.1,0.9,0.3c0.3,0.2,0.4,0.5,0.4,0.8v3.5l3.6-4.1c0.1-0.1,0.3-0.3,0.5-0.4s0.4-0.2,0.6-0.2c0.1,0,0.3,0,0.4,0.1
		c0.2,0.1,0.3,0.1,0.4,0.3s0.2,0.2,0.3,0.4c0.1,0.1,0.1,0.3,0.1,0.5c0,0.1,0,0.3,0,0.4c0,0.1-0.1,0.3-0.3,0.4L43.1,50.1z"/>
	<path class="st3" d="M51.4,52.7v3.4c0,0.3-0.1,0.6-0.4,0.8c-0.3,0.2-0.6,0.4-0.9,0.4c-0.3,0-0.6-0.1-0.9-0.4
		c-0.3-0.2-0.4-0.5-0.4-0.9V45.5c0-0.2,0-0.4,0.1-0.5c0.1-0.2,0.2-0.3,0.3-0.4c0.1-0.1,0.3-0.2,0.5-0.3c0.2-0.1,0.4-0.1,0.6-0.1H53
		c0.9,0,1.6,0.1,2.2,0.4c0.6,0.2,1.1,0.6,1.5,1c0.4,0.4,0.6,0.9,0.8,1.4c0.2,0.5,0.2,1.1,0.2,1.6c0,0.7-0.1,1.3-0.3,1.8
		c-0.2,0.5-0.5,1-0.9,1.3c-0.4,0.4-0.9,0.6-1.5,0.8c-0.6,0.2-1.2,0.3-1.9,0.3H51.4z M51.4,50.4H53c0.7,0,1.2-0.2,1.6-0.5
		c0.4-0.3,0.5-0.8,0.5-1.5c0-0.2,0-0.5-0.1-0.7s-0.2-0.4-0.3-0.6c-0.2-0.2-0.4-0.3-0.6-0.5c-0.3-0.1-0.6-0.2-1.1-0.2h-1.6V50.4z"/>
	<path class="st3" d="M59.3,45.2c0-0.3,0.1-0.6,0.4-0.8c0.3-0.2,0.6-0.3,0.9-0.3c0.4,0,0.7,0.1,0.9,0.3c0.3,0.2,0.4,0.5,0.4,0.8v11
		c0,0.3-0.1,0.6-0.4,0.8c-0.3,0.2-0.6,0.4-0.9,0.4c-0.4,0-0.7-0.1-0.9-0.4c-0.3-0.2-0.4-0.5-0.4-0.8V45.2z"/>
</g>
<g>
	<g>
		<path class="st4" d="M49.5,89.3c-0.3,0-0.7-0.1-1-0.3c-0.3-0.2-0.9-0.7-1.8-1.3C41.5,84,29.1,75.3,24.9,65.2
			c-3.1-7.4-5.4-20.7-6.1-29.5c0-0.4,0.1-0.8,0.4-1.1s0.6-0.5,1-0.5c4.9-0.2,8.7-4.2,8.7-9.1c0-0.8-0.1-1.6-0.3-2.4
			c-0.1-0.4,0-0.8,0.2-1.2c0.2-0.4,0.6-0.6,1-0.7c5.8-1,14.5-2,19.7-2s14.2,1.1,20.3,2.1c0.4,0.1,0.8,0.3,1,0.7
			c0.2,0.4,0.3,0.8,0.2,1.2c-0.2,0.8-0.3,1.5-0.3,2.3c0,4.7,3.5,8.6,8.1,9.1c0.8,0.1,1.4,0.8,1.3,1.6c-0.6,8.8-3,22.1-6.1,29.5
			C69.9,75.3,57.5,84,52.2,87.7c-0.8,0.6-1.5,1-1.8,1.3C50.2,89.2,49.8,89.3,49.5,89.3z M21.9,36.9c0.9,9.7,3.3,21.1,5.7,27.1
			c3.8,9.3,16.2,18,20.8,21.2c0.4,0.3,0.7,0.5,1,0.7c0.3-0.2,0.6-0.4,1-0.7c4.6-3.3,17-11.9,20.8-21.2c2.5-6,4.9-17.5,5.7-27.3
			c-5.4-1.3-9.3-6.1-9.3-11.8c0-0.5,0-1,0.1-1.5c-6.6-1.1-14.3-1.8-18.3-1.8c-3.9,0-11.2,0.7-17.7,1.7c0.1,0.5,0.1,1.1,0.1,1.6
			C31.9,30.9,27.7,35.9,21.9,36.9z"/>
	</g>
</g>
</svg>
