<?xml version="1.0" encoding="utf-8"?>
<!-- Generator: Adobe Illustrator 22.1.0, SVG Export Plug-In . SVG Version: 6.00 Build 0)  -->
<svg version="1.1" id="Слой_4" xmlns="http://www.w3.org/2000/svg" xmlns:xlink="http://www.w3.org/1999/xlink" x="0px" y="0px"
	 viewBox="0 0 134 133.3" style="enable-background:new 0 0 134 133.3;" xml:space="preserve">
<style type="text/css">
	.st0{fill:#3E81C3;}
	.st1{fill:#FFFFFF;}
	.st2{opacity:0.1;}
</style>
<circle class="st0" cx="67" cy="67" r="67"/>
<g>
	<path class="st1" d="M90.8,107.5h-1.2c-1,0-1.3-0.2-1.6-0.7L76,82.9c-3.5-6.9-7.5-10-16.3-10H45.4v33.8c0,0.6-0.2,0.8-0.8,0.8h-1.3
		c-0.6,0-0.8-0.2-0.8-0.8V37.3c0-0.6,0.2-0.8,0.8-0.8h1.3c0.6,0,0.8,0.2,0.8,0.8v32.8h14.2c1,0,1.9,0,2.8,0.1l24.3-33
		c0.4-0.6,0.7-0.7,1.7-0.7h1.3c0.8,0,0.9,0.4,0.5,0.9L65.5,70.7c6.4,1.3,10.1,4.8,13.1,10.9l12.6,25
		C91.6,107.1,91.4,107.5,90.8,107.5z"/>
</g>
<path class="st2" d="M80.7,0.7c15.8,12.3,25.9,31.4,25.9,52.9c0,37-30,67-67,67c-4.7,0-9.3-0.5-13.7-1.4
	c11.3,8.8,25.6,14.1,41.1,14.1c37,0,67-30,67-67C134,34,111.1,7,80.7,0.7z"/>
</svg>
