<?xml version="1.0" encoding="utf-8"?>
<!-- Generator: Adobe Illustrator 22.1.0, SVG Export Plug-In . SVG Version: 6.00 Build 0)  -->
<svg version="1.1" id="Слой_1" xmlns="http://www.w3.org/2000/svg" xmlns:xlink="http://www.w3.org/1999/xlink" x="0px" y="0px"
	 viewBox="0 0 253 144" style="enable-background:new 0 0 253 144;" xml:space="preserve">
<style type="text/css">
	.st0{fill:#0081C6;}
</style>
<path class="st0" d="M0.6,10l22.3,17.8c2.5,2,4.1,5,4.4,8.3l6,71.7c0.7,8.4,7.2,15.1,15.5,16l186.1,20.2c9.7,1,18.1-6.6,18.1-16.3
	V34.5c0-5.4-3.9-10.1-9.3-11l-78.1-12.9L35.8,0c-2.7-0.2-5,1.8-5.2,4.5l0,0c-0.4,4.9-5.1,8.3-9.9,7.2L1.9,7.2
	C0.3,6.8-0.7,8.9,0.6,10z"/>
</svg>
