<?xml version="1.0" encoding="utf-8"?>
<!-- Generator: Adobe Illustrator 22.1.0, SVG Export Plug-In . SVG Version: 6.00 Build 0)  -->
<svg version="1.1" id="OBJECTS" xmlns="http://www.w3.org/2000/svg" xmlns:xlink="http://www.w3.org/1999/xlink" x="0px" y="0px"
	 viewBox="0 0 55.9 52.3" style="enable-background:new 0 0 55.9 52.3;" xml:space="preserve">
<style type="text/css">
	.st0{fill:#161616;}
	.st1{fill:#3E81C3;}
</style>
<g>
	<path class="st0" d="M50.9,38.8h-13c-0.5,0-1-0.4-1-1c0-0.5,0.4-1,1-1h13c1.7,0,3.1-1.4,3.1-3.1V5.2C54,3.4,52.5,2,50.8,2H4.9
		c-0.5,0-1-0.4-1-1s0.4-1,1-1h45.8c2.9,0,5.2,2.3,5.2,5.2v28.5C55.9,36.5,53.7,38.8,50.9,38.8z"/>
</g>
<g>
	<path class="st0" d="M19.5,35.6c-0.5,0-1-0.4-1-1V18.7c0-1.8,1.5-3.3,3.3-3.3s3.3,1.5,3.3,3.3v13.1c0,0.5-0.4,1-1,1s-1-0.4-1-1
		V18.7c0-0.7-0.6-1.3-1.3-1.3s-1.3,0.6-1.3,1.3v15.9C20.5,35.1,20,35.6,19.5,35.6z"/>
</g>
<g>
	<path class="st0" d="M24.1,32.7c-0.5,0-1-0.4-1-1v-4.2c0-1.8,1.5-3.3,3.3-3.3c1.8,0,3.3,1.5,3.3,3.3v4c0,0.5-0.4,1-1,1
		c-0.5,0-1-0.4-1-1v-4c0-0.7-0.6-1.3-1.3-1.3c-0.7,0-1.3,0.6-1.3,1.3v4.2C25.1,32.3,24.6,32.7,24.1,32.7z"/>
</g>
<g>
	<path class="st0" d="M33.3,33.9c-0.5,0-1-0.4-1-1v-4c0-0.7-0.6-1.3-1.3-1.3c-0.7,0-1.3,0.6-1.3,1.3v2.8c0,0.5-0.4,1-1,1
		c-0.5,0-1-0.4-1-1v-2.8c0-1.8,1.5-3.3,3.3-3.3s3.3,1.5,3.3,3.3v4C34.3,33.5,33.8,33.9,33.3,33.9z"/>
</g>
<g>
	<path class="st0" d="M28.7,52.3c-6.3,0-9.1-3.7-12-8.1l-5.6-8.4c-0.7-0.7-1.1-1.7-1.1-2.7c0-1.1,0.4-2.1,1.2-2.8
		c1.5-1.5,4.1-1.5,5.6,0l3.4,3.6c0.4,0.4,0.4,1,0,1.4c-0.4,0.4-1,0.4-1.4,0l-3.4-3.6c-0.8-0.8-2-0.8-2.8,0c-0.4,0.4-0.6,0.9-0.6,1.4
		c0,0.5,0.2,1,0.6,1.4c0,0,0.1,0.1,0.1,0.2l5.6,8.5c2.7,4.2,5,7.2,10.3,7.2c4.5,0,8.2-3.7,8.2-8.2V30.3c0-0.7-0.6-1.3-1.3-1.3
		c-0.7,0-1.3,0.6-1.3,1.3v2.8c0,0.5-0.4,1-1,1c-0.5,0-1-0.4-1-1v-2.8c0-1.8,1.5-3.3,3.3-3.3c1.8,0,3.3,1.5,3.3,3.3v11.8
		C38.9,47.7,34.3,52.3,28.7,52.3z"/>
</g>
<g>
	<path class="st1" d="M15.4,24.3c-0.3,0-0.6-0.1-0.8-0.4c-1.1-1.5-1.7-3.3-1.7-5.2c0-4.9,4-8.9,8.9-8.9c4.9,0,8.9,4,8.9,8.9
		c0,1.1-0.2,2.2-0.6,3.2c-0.2,0.5-0.8,0.8-1.3,0.6c-0.5-0.2-0.8-0.8-0.6-1.3c0.3-0.8,0.5-1.6,0.5-2.5c0-3.8-3.1-6.9-6.9-6.9
		s-6.9,3.1-6.9,6.9c0,1.5,0.5,2.9,1.3,4c0.3,0.4,0.2,1.1-0.2,1.4C15.8,24.2,15.6,24.3,15.4,24.3z"/>
</g>
<g>
	<path class="st0" d="M19.5,35.6c-0.5,0-1-0.4-1-1V18.7c0-1.8,1.5-3.3,3.3-3.3s3.3,1.5,3.3,3.3v13.1c0,0.5-0.4,1-1,1s-1-0.4-1-1
		V18.7c0-0.7-0.6-1.3-1.3-1.3s-1.3,0.6-1.3,1.3v15.9C20.5,35.1,20,35.6,19.5,35.6z"/>
</g>
<g>
	<circle class="st0" cx="49.9" cy="19.4" r="1.6"/>
</g>
<g>
	<path class="st0" d="M13.2,38.8h-8c-2.8,0-5.1-2.3-5.1-5.1V4.9c0-0.5,0.4-1,1-1s1,0.4,1,1v28.8c0,1.7,1.4,3.1,3.1,3.1h8
		c0.5,0,1,0.4,1,1C14.2,38.4,13.7,38.8,13.2,38.8z"/>
</g>
<g>
	<path class="st0" d="M44.7,33.5h-6.8c-0.5,0-1-0.4-1-1c0-0.5,0.4-1,1-1h6.5V7.3h-37v24.1h3.3c0.5,0,1,0.4,1,1c0,0.5-0.4,1-1,1H7
		c-0.9,0-1.6-0.7-1.6-1.6V7c0-0.9,0.7-1.6,1.6-1.6h37.7c0.9,0,1.6,0.7,1.6,1.6v24.8C46.4,32.7,45.6,33.5,44.7,33.5z"/>
</g>
</svg>
