<?xml version="1.0" encoding="utf-8"?>
<!-- Generator: Adobe Illustrator 22.1.0, SVG Export Plug-In . SVG Version: 6.00 Build 0)  -->
<svg version="1.1" id="Слой_1" xmlns="http://www.w3.org/2000/svg" xmlns:xlink="http://www.w3.org/1999/xlink" x="0px" y="0px"
	 viewBox="0 0 100 100" style="enable-background:new 0 0 100 100;" xml:space="preserve">
<style type="text/css">
	.st0{fill:#8ED0EF;}
	.st1{fill:#0081C6;}
	.st2{fill:#FAFAFA;}
	.st3{fill:#F2F214;}
	.st4{fill:#C8D1FC;}
	.st5{fill:#646464;}
</style>
<circle class="st0" cx="50" cy="50" r="50"/>
<g>
	<path class="st1" d="M71,21H29c-0.8,0-1.5,0.7-1.5,1.5v56.2c0,0.8,0.7,1.5,1.5,1.5H71c0.8,0,1.5-0.7,1.5-1.5V22.5
		C72.6,21.6,71.9,21,71,21z"/>
	<polygon class="st2" points="29.1,22.8 29.1,25.1 29.1,76.1 29.1,78.4 70.9,78.4 70.9,76.1 70.9,25.1 70.9,22.8 	"/>
	<path class="st1" d="M56.9,20H43.1c-0.3,0-0.5,0.2-0.5,0.5V24c0,0.3,0.2,0.5,0.5,0.5h13.7c0.3,0,0.5-0.2,0.5-0.5v-3.5
		C57.4,20.2,57.1,20,56.9,20z"/>
	<path class="st1" d="M50,16.6L50,16.6c-1.4,0-2.6,1.2-2.6,2.6v1.1h5.2v-1.1C52.6,17.8,51.4,16.6,50,16.6z M50,19.1
		c-0.3,0-0.6-0.3-0.6-0.6c0-0.3,0.3-0.6,0.6-0.6s0.6,0.3,0.6,0.6C50.6,18.8,50.3,19.1,50,19.1z"/>
	<rect x="43.1" y="34.8" class="st1" width="23.7" height="1.8"/>
	<rect x="38.2" y="30.9" class="st3" width="23.7" height="1.8"/>
	<rect x="43.1" y="38" class="st4" width="23.7" height="1.8"/>
	<rect x="43.1" y="41.1" class="st4" width="23.7" height="1.8"/>
	<rect x="43.1" y="47.9" class="st1" width="23.7" height="1.8"/>
	<rect x="43.1" y="51.1" class="st4" width="23.7" height="1.8"/>
	<rect x="43.1" y="54.2" class="st4" width="23.7" height="1.8"/>
	<rect x="43.1" y="61" class="st1" width="23.7" height="1.8"/>
	<rect x="43.1" y="64.1" class="st4" width="23.7" height="1.8"/>
	<rect x="43.1" y="67.3" class="st4" width="23.7" height="1.8"/>
	<path class="st4" d="M33.2,34.8v8h8v-8H33.2z M39.8,41.5h-5.2v-5.2h5.2V41.5z"/>
	<path class="st4" d="M33.2,47.9v8h8v-8H33.2z M39.8,54.5h-5.2v-5.2h5.2V54.5z"/>
	<path class="st4" d="M33.2,61v8h8v-8H33.2z M39.8,67.6h-5.2v-5.2h5.2V67.6z"/>
	<g>
		<polygon class="st5" points="36.6,40.9 34.1,37.5 35.4,36.5 36.9,38.6 41.2,34.8 42.2,36.1 		"/>
	</g>
	<g>
		<polygon class="st5" points="36.6,54 34.1,50.5 35.4,49.6 36.9,51.6 41.2,47.9 42.2,49.1 		"/>
	</g>
	<g>
		<polygon class="st5" points="36.6,67.1 34.1,63.6 35.4,62.6 36.9,64.7 41.2,61 42.2,62.2 		"/>
	</g>
</g>
</svg>
