<?xml version="1.0" encoding="utf-8"?>
<!-- Generator: Adobe Illustrator 22.1.0, SVG Export Plug-In . SVG Version: 6.00 Build 0)  -->
<svg version="1.1" id="Слой_4" xmlns="http://www.w3.org/2000/svg" xmlns:xlink="http://www.w3.org/1999/xlink" x="0px" y="0px"
	 viewBox="0 0 134 133.3" style="enable-background:new 0 0 134 133.3;" xml:space="preserve">
<style type="text/css">
	.st0{fill:#3E81C3;}
	.st1{fill:#FFFFFF;}
	.st2{opacity:0.1;}
</style>
<circle class="st0" cx="67" cy="67" r="67"/>
<g>
	<path class="st1" d="M92.1,37.3v69.4c0,0.6-0.2,0.8-0.8,0.8h-1.4c-0.6,0-0.8-0.2-0.8-0.8V39.2H44.8v67.5c0,0.6-0.2,0.8-0.8,0.8
		h-1.3c-0.6,0-0.8-0.2-0.8-0.8V37.3c0-0.6,0.2-0.8,0.8-0.8h48.5C91.9,36.5,92.1,36.7,92.1,37.3z"/>
</g>
<path class="st2" d="M80.7,0.7c15.8,12.3,25.9,31.4,25.9,52.9c0,37-30,67-67,67c-4.7,0-9.3-0.5-13.7-1.4
	c11.3,8.8,25.6,14.1,41.1,14.1c37,0,67-30,67-67C134,34,111.1,7,80.7,0.7z"/>
</svg>
