<?xml version="1.0" encoding="utf-8"?>
<!-- Generator: Adobe Illustrator 22.1.0, SVG Export Plug-In . SVG Version: 6.00 Build 0)  -->
<svg version="1.1" id="OBJECTS" xmlns="http://www.w3.org/2000/svg" xmlns:xlink="http://www.w3.org/1999/xlink" x="0px" y="0px"
	 viewBox="0 0 42 46.1" style="enable-background:new 0 0 42 46.1;" xml:space="preserve">
<style type="text/css">
	.st0{fill:#6791C9;}
	.st1{fill:#222222;}
</style>
<g>
	<g>
		<path class="st0" d="M7.7,38.8c-2.2,0-3.9-1.7-3.9-3.8V4.7c0-2.1,1.8-3.8,3.9-3.8h19.4c2,0,3.6,1.4,3.9,3.3c0,0.4-0.3,0.8-0.7,0.8
			c-0.4,0.1-0.8-0.2-0.9-0.7c-0.1-1.1-1.1-2-2.3-2H7.7c-1.3,0-2.3,1-2.3,2.3V35c0,1.3,1.1,2.3,2.3,2.3c0.4,0,0.8,0.3,0.8,0.8
			C8.5,38.5,8.1,38.8,7.7,38.8z"/>
	</g>
	<g>
		<path class="st0" d="M11.7,41.7h-0.4c-2.2,0-3.9-1.7-3.9-3.8V7.6c0-2.1,1.8-3.8,3.9-3.8h19.4c2.2,0,3.9,1.7,3.9,3.8
			c0,0.4-0.3,0.8-0.8,0.8S33.1,8,33.1,7.6c0-1.3-1.1-2.3-2.3-2.3H11.3c-1.3,0-2.3,1-2.3,2.3v30.3c0,1.3,1.1,2.3,2.3,2.3h0.4
			c0.4,0,0.8,0.3,0.8,0.8C12.5,41.4,12.2,41.7,11.7,41.7z"/>
	</g>
	<g>
		<path class="st0" d="M34.3,44.9H14.9c-2.2,0-3.9-1.7-3.9-3.8V10.8C11,8.7,12.7,7,14.9,7h19.4c2.2,0,3.9,1.7,3.9,3.8v30.3
			C38.2,43.2,36.4,44.9,34.3,44.9z M14.9,8.5c-1.3,0-2.3,1-2.3,2.3v30.3c0,1.3,1.1,2.3,2.3,2.3h19.4c1.3,0,2.3-1,2.3-2.3V10.8
			c0-1.3-1.1-2.3-2.3-2.3H14.9z"/>
	</g>
	<g>
		<path class="st0" d="M32,14.5H20.7c-0.4,0-0.8-0.3-0.8-0.8c0-0.4,0.3-0.8,0.8-0.8H32c0.4,0,0.8,0.3,0.8,0.8
			C32.8,14.1,32.4,14.5,32,14.5z"/>
	</g>
	<g>
		<path class="st0" d="M32,19H20.7c-0.4,0-0.8-0.3-0.8-0.8s0.3-0.8,0.8-0.8H32c0.4,0,0.8,0.3,0.8,0.8S32.4,19,32,19z"/>
	</g>
	<g>
		<path class="st0" d="M32,23.5H20.7c-0.4,0-0.8-0.3-0.8-0.8c0-0.4,0.3-0.8,0.8-0.8H32c0.4,0,0.8,0.3,0.8,0.8
			C32.8,23.2,32.4,23.5,32,23.5z"/>
	</g>
	<g>
		<path class="st0" d="M32,28.1H20.7c-0.4,0-0.8-0.3-0.8-0.8c0-0.4,0.3-0.8,0.8-0.8H32c0.4,0,0.8,0.3,0.8,0.8
			C32.8,27.7,32.4,28.1,32,28.1z"/>
	</g>
	<g>
		<path class="st0" d="M32,32.6H20.7c-0.4,0-0.8-0.3-0.8-0.8s0.3-0.8,0.8-0.8H32c0.4,0,0.8,0.3,0.8,0.8S32.4,32.6,32,32.6z"/>
	</g>
	<g>
		<path class="st1" d="M17.9,14.5h-0.7c-0.4,0-0.8-0.3-0.8-0.8c0-0.4,0.3-0.8,0.8-0.8h0.7c0.4,0,0.8,0.3,0.8,0.8
			C18.7,14.1,18.3,14.5,17.9,14.5z"/>
	</g>
	<g>
		<path class="st1" d="M17.9,19h-0.7c-0.4,0-0.8-0.3-0.8-0.8s0.3-0.8,0.8-0.8h0.7c0.4,0,0.8,0.3,0.8,0.8S18.3,19,17.9,19z"/>
	</g>
	<g>
		<path class="st1" d="M17.9,23.5h-0.7c-0.4,0-0.8-0.3-0.8-0.8c0-0.4,0.3-0.8,0.8-0.8h0.7c0.4,0,0.8,0.3,0.8,0.8
			C18.7,23.2,18.3,23.5,17.9,23.5z"/>
	</g>
	<g>
		<path class="st1" d="M17.9,28.1h-0.7c-0.4,0-0.8-0.3-0.8-0.8c0-0.4,0.3-0.8,0.8-0.8h0.7c0.4,0,0.8,0.3,0.8,0.8
			C18.7,27.7,18.3,28.1,17.9,28.1z"/>
	</g>
	<g>
		<path class="st1" d="M17.9,32.6h-0.7c-0.4,0-0.8-0.3-0.8-0.8s0.3-0.8,0.8-0.8h0.7c0.4,0,0.8,0.3,0.8,0.8S18.3,32.6,17.9,32.6z"/>
	</g>
	<g>
		<path class="st1" d="M30.3,40.1c-0.1,0-0.3,0-0.4-0.1c-0.4-0.2-0.5-0.7-0.3-1l1.7-2.9c0.2-0.4,0.7-0.5,1.1-0.3
			c0.4,0.2,0.5,0.7,0.3,1l-1.7,2.9C30.8,40,30.5,40.1,30.3,40.1z"/>
	</g>
	<g>
		<path class="st1" d="M30.3,40.1c-0.2,0-0.5-0.1-0.6-0.3l-1.5-2.1c-0.2-0.3-0.2-0.8,0.2-1.1c0.4-0.2,0.8-0.2,1.1,0.2l1.5,2.1
			c0.2,0.3,0.2,0.8-0.2,1.1C30.6,40,30.4,40.1,30.3,40.1z"/>
	</g>
</g>
</svg>
