<?xml version="1.0" encoding="utf-8"?>
<!-- Generator: Adobe Illustrator 22.1.0, SVG Export Plug-In . SVG Version: 6.00 Build 0)  -->
<svg version="1.1" id="OBJECTS" xmlns="http://www.w3.org/2000/svg" xmlns:xlink="http://www.w3.org/1999/xlink" x="0px" y="0px"
	 viewBox="0 0 50 50" style="enable-background:new 0 0 50 50;" xml:space="preserve">
<style type="text/css">
	.st0{fill:#222222;}
	.st1{fill:#6892CA;}
</style>
<g>
	<g>
		<path class="st0" d="M18.4,39c-1.9,0-3.8-0.7-5.2-2.1c-1.4-1.4-2.1-3.2-2.1-5.2c0-2,0.8-3.8,2.1-5.2l4.1-4.1c0.4-0.4,1-0.4,1.4,0
			c0.4,0.4,0.4,1,0,1.4l-4.1,4.1c-1,1-1.5,2.3-1.5,3.7c0,1.4,0.5,2.7,1.5,3.7c2.1,2.1,5.4,2.1,7.5,0l4.1-4.1c2.1-2.1,2.1-5.4,0-7.5
			c-0.4-0.4-0.4-1,0-1.4c0.4-0.4,1-0.4,1.4,0c2.9,2.9,2.9,7.5,0,10.4l-4.1,4.1C22.1,38.3,20.2,39,18.4,39z"/>
	</g>
	<g>
		<path class="st0" d="M32,27.9c-0.3,0-0.5-0.1-0.7-0.3c-0.4-0.4-0.4-1,0-1.4l4.1-4.1c1-1,1.5-2.3,1.5-3.7c0-1.4-0.5-2.7-1.5-3.7
			c-2.1-2.1-5.4-2.1-7.5,0l-4.1,4.1c-2.1,2.1-2.1,5.4,0,7.5c0.4,0.4,0.4,1,0,1.4c-0.4,0.4-1,0.4-1.4,0c-1.4-1.4-2.1-3.2-2.1-5.2
			c0-2,0.8-3.8,2.1-5.2l4.1-4.1c2.9-2.9,7.5-2.9,10.4,0c1.4,1.4,2.1,3.2,2.1,5.2s-0.8,3.8-2.1,5.2l-4.1,4.1
			C32.6,27.8,32.3,27.9,32,27.9z"/>
	</g>
</g>
<g>
	<path class="st0" d="M25,50C11.2,50,0,38.8,0,25S11.2,0,25,0c13.8,0,25,11.2,25,25c0,3.4-0.7,6.7-2,9.9c-0.2,0.5-0.8,0.8-1.3,0.5
		c-0.5-0.2-0.8-0.8-0.5-1.3c1.2-2.9,1.8-5.9,1.8-9C48,12.3,37.7,2,25,2S2,12.3,2,25s10.3,23,23,23c3,0,5.9-0.6,8.6-1.7
		c0.5-0.2,1.1,0,1.3,0.6c0.2,0.5,0,1.1-0.6,1.3C31.4,49.4,28.3,50,25,50z"/>
</g>
<g>
	<path class="st0" d="M42.6,50c-4.1,0-7.5-3.3-7.5-7.5s3.3-7.5,7.5-7.5s7.5,3.3,7.5,7.5S46.7,50,42.6,50z M42.6,37.1
		c-3,0-5.4,2.4-5.4,5.4c0,3,2.4,5.4,5.4,5.4c3,0,5.4-2.4,5.4-5.4C48,39.6,45.6,37.1,42.6,37.1z"/>
</g>
<g>
	<path class="st1" d="M42.6,46.5c-0.6,0-1-0.5-1-1v-5.8c0-0.6,0.5-1,1-1s1,0.5,1,1v5.8C43.6,46,43.1,46.5,42.6,46.5z"/>
</g>
<g>
	<path class="st1" d="M45.5,43.6h-5.8c-0.6,0-1-0.5-1-1s0.5-1,1-1h5.8c0.6,0,1,0.5,1,1S46.1,43.6,45.5,43.6z"/>
</g>
</svg>
