<?xml version="1.0" encoding="utf-8"?>
<!-- Generator: Adobe Illustrator 22.1.0, SVG Export Plug-In . SVG Version: 6.00 Build 0)  -->
<svg version="1.1" id="OBJECTS" xmlns="http://www.w3.org/2000/svg" xmlns:xlink="http://www.w3.org/1999/xlink" x="0px" y="0px"
	 viewBox="0 0 37.9 50" style="enable-background:new 0 0 37.9 50;" xml:space="preserve">
<style type="text/css">
	.st0{fill:#6892CA;}
	.st1{fill:#222222;}
</style>
<g>
	<g>
		<path class="st0" d="M17.5,7.9H9.6c-0.6,0-1-0.5-1-1s0.5-1,1-1h7.8c0.6,0,1,0.5,1,1S18,7.9,17.5,7.9z"/>
	</g>
	<g>
		<path class="st0" d="M17.5,11.6H9.6c-0.6,0-1-0.5-1-1s0.5-1,1-1h7.8c0.6,0,1,0.5,1,1S18,11.6,17.5,11.6z"/>
	</g>
	<g>
		<path class="st0" d="M17.5,15.4H9.6c-0.6,0-1-0.5-1-1c0-0.6,0.5-1,1-1h7.8c0.6,0,1,0.5,1,1C18.5,14.9,18,15.4,17.5,15.4z"/>
	</g>
	<g>
		<path class="st0" d="M28.3,7.9h-7.8c-0.6,0-1-0.5-1-1s0.5-1,1-1h7.8c0.6,0,1,0.5,1,1S28.8,7.9,28.3,7.9z"/>
	</g>
	<g>
		<path class="st0" d="M28.3,11.6h-7.8c-0.6,0-1-0.5-1-1s0.5-1,1-1h7.8c0.6,0,1,0.5,1,1S28.8,11.6,28.3,11.6z"/>
	</g>
	<g>
		<path class="st0" d="M28.3,15.4h-7.8c-0.6,0-1-0.5-1-1c0-0.6,0.5-1,1-1h7.8c0.6,0,1,0.5,1,1C29.3,14.9,28.8,15.4,28.3,15.4z"/>
	</g>
	<g>
		<path class="st0" d="M28.3,26H9.6c-0.6,0-1-0.5-1-1c0-0.6,0.5-1,1-1h18.6c0.6,0,1,0.5,1,1C29.3,25.6,28.8,26,28.3,26z"/>
	</g>
	<g>
		<path class="st0" d="M28.3,29.8H9.6c-0.6,0-1-0.5-1-1s0.5-1,1-1h18.6c0.6,0,1,0.5,1,1S28.8,29.8,28.3,29.8z"/>
	</g>
	<g>
		<path class="st0" d="M28.3,40.6H9.6c-0.6,0-1-0.5-1-1s0.5-1,1-1h18.6c0.6,0,1,0.5,1,1S28.8,40.6,28.3,40.6z"/>
	</g>
	<g>
		<path class="st0" d="M28.3,44.2H9.6c-0.6,0-1-0.5-1-1s0.5-1,1-1h18.6c0.6,0,1,0.5,1,1S28.8,44.2,28.3,44.2z"/>
	</g>
</g>
<g>
	<path class="st1" d="M32.9,50H5c-2.8,0-5-2.3-5-5V5c0-0.6,0.5-1,1-1s1,0.5,1,1V45c0,1.6,1.3,3,3,3h27.8c1.6,0,3-1.3,3-3V5
		c0-1.6-1.3-3-3-3H5C4.5,2,4,1.6,4,1s0.5-1,1-1h27.8c2.8,0,5,2.3,5,5V45C37.9,47.7,35.6,50,32.9,50z"/>
</g>
</svg>
