<?xml version="1.0" encoding="utf-8"?>
<!-- Generator: Adobe Illustrator 22.1.0, SVG Export Plug-In . SVG Version: 6.00 Build 0)  -->
<svg version="1.1" id="OBJECTS" xmlns="http://www.w3.org/2000/svg" xmlns:xlink="http://www.w3.org/1999/xlink" x="0px" y="0px"
	 viewBox="0 0 50.2 52.3" style="enable-background:new 0 0 50.2 52.3;" xml:space="preserve">
<style type="text/css">
	.st0{fill:#222222;}
	.st1{fill:#6892CA;}
</style>
<g>
	<g>
		<path class="st0" d="M10.2,52.3c-0.6,0-1-0.4-1-1V1c0-0.6,0.4-1,1-1s1,0.4,1,1v50.3C11.2,51.9,10.8,52.3,10.2,52.3z"/>
	</g>
	<g>
		<path class="st0" d="M17.7,52.3c-0.6,0-1-0.4-1-1V22.9c0-0.6,0.4-1,1-1s1,0.4,1,1v28.4C18.7,51.9,18.3,52.3,17.7,52.3z"/>
	</g>
	<g>
		<path class="st0" d="M25.4,52.3c-0.6,0-1-0.4-1-1V13.2c0-0.6,0.4-1,1-1s1,0.4,1,1v38.1C26.4,51.9,26,52.3,25.4,52.3z"/>
	</g>
	<g>
		<path class="st0" d="M2.5,52.3c-0.6,0-1-0.4-1-1v-37c0-0.6,0.4-1,1-1s1,0.4,1,1v37C3.5,51.9,3,52.3,2.5,52.3z"/>
	</g>
	<g>
		<path class="st0" d="M32.7,52.3c-0.6,0-1-0.4-1-1v-25c0-0.6,0.4-1,1-1s1,0.4,1,1v25C33.7,51.9,33.3,52.3,32.7,52.3z"/>
	</g>
	<g>
		<path class="st0" d="M40.2,52.3c-0.6,0-1-0.4-1-1V28.8c0-0.6,0.4-1,1-1s1,0.4,1,1v22.5C41.2,51.9,40.8,52.3,40.2,52.3z"/>
	</g>
	<g>
		<path class="st0" d="M47.7,52.3c-0.6,0-1-0.4-1-1V26.8c0-0.6,0.4-1,1-1s1,0.4,1,1v24.5C48.7,51.9,48.3,52.3,47.7,52.3z"/>
	</g>
	<g>
		<path class="st0" d="M40.2,25.2c-5.5,0-10-4.5-10-10s4.5-10,10-10s10,4.5,10,10S45.7,25.2,40.2,25.2z M40.2,7.2c-4.4,0-8,3.6-8,8
			s3.6,8,8,8c4.4,0,8-3.6,8-8S44.6,7.2,40.2,7.2z"/>
	</g>
	<g>
		<path class="st1" d="M41.4,9.9v0.7c1.3,0.2,2.1,0.9,2.6,1.9c0.2,0.3,0.1,0.5-0.3,0.7L43,13.5c-0.3,0.1-0.5,0.1-0.7-0.3
			c-0.3-0.7-0.8-1.1-1.8-1.1c-1.2,0-1.7,0.3-1.7,1.1c0,0.8,0.9,1,2,1.1c1.5,0.2,3.4,0.4,3.4,2.8c0,1.5-1,2.6-2.8,2.8v0.7
			c0,0.3-0.1,0.4-0.4,0.4h-0.8c-0.3,0-0.4-0.1-0.4-0.4V20c-1.4-0.2-2.4-1-2.8-2.2c-0.1-0.3,0-0.5,0.3-0.6l0.7-0.3
			c0.3-0.1,0.5-0.1,0.7,0.3c0.3,0.8,0.9,1.2,1.9,1.2c1.3,0,1.9-0.4,1.9-1.2c0-0.9-0.9-1-2-1.1c-1.6-0.2-3.4-0.5-3.4-2.8
			c0-1.5,0.9-2.5,2.7-2.8V9.9c0-0.3,0.1-0.4,0.4-0.4h0.8C41.3,9.4,41.4,9.5,41.4,9.9z"/>
	</g>
</g>
</svg>
