<?xml version="1.0" encoding="utf-8"?>
<!-- Generator: Adobe Illustrator 22.1.0, SVG Export Plug-In . SVG Version: 6.00 Build 0)  -->
<svg version="1.1" id="OBJECTS" xmlns="http://www.w3.org/2000/svg" xmlns:xlink="http://www.w3.org/1999/xlink" x="0px" y="0px"
	 viewBox="0 0 50 50" style="enable-background:new 0 0 50 50;" xml:space="preserve">
<style type="text/css">
	.st0{fill:#6892CA;}
	.st1{fill:#222222;}
</style>
<g>
	<path class="st0" d="M1,50c-0.6,0-1-0.5-1-1V1c0-0.6,0.5-1,1-1s1,0.5,1,1v48C2,49.5,1.6,50,1,50z"/>
</g>
<g>
	<path class="st0" d="M49,50H1c-0.6,0-1-0.5-1-1s0.5-1,1-1h48c0.6,0,1,0.5,1,1S49.5,50,49,50z"/>
</g>
<g>
	<path class="st1" d="M8.7,45.9c-0.6,0-1-0.5-1-1V30.6c0-0.6,0.5-1,1-1s1,0.5,1,1v14.3C9.7,45.5,9.3,45.9,8.7,45.9z"/>
</g>
<g>
	<path class="st1" d="M24.1,45.9c-0.6,0-1-0.5-1-1V26.2c0-0.6,0.5-1,1-1s1,0.5,1,1v18.7C25.1,45.5,24.6,45.9,24.1,45.9z"/>
</g>
<g>
	<path class="st1" d="M31.7,45.9c-0.6,0-1-0.5-1-1V23.8c0-0.6,0.5-1,1-1s1,0.5,1,1v21.1C32.8,45.5,32.3,45.9,31.7,45.9z"/>
</g>
<g>
	<path class="st1" d="M39.4,45.9c-0.6,0-1-0.5-1-1V28.4c0-0.6,0.5-1,1-1s1,0.5,1,1v16.5C40.4,45.5,40,45.9,39.4,45.9z"/>
</g>
<g>
	<path class="st1" d="M16.4,45.9c-0.6,0-1-0.5-1-1V33.2c0-0.6,0.5-1,1-1s1,0.5,1,1v11.7C17.4,45.5,16.9,45.9,16.4,45.9z"/>
</g>
<g>
	<path class="st1" d="M39.4,28.8c-5.6,0-10.2-4.6-10.2-10.2S33.8,8.4,39.4,8.4S49.7,13,49.7,18.6S45.1,28.8,39.4,28.8z M39.4,10.4
		c-4.5,0-8.2,3.7-8.2,8.2s3.7,8.2,8.2,8.2s8.2-3.7,8.2-8.2S43.9,10.4,39.4,10.4z"/>
</g>
<g>
	<path class="st0" d="M39.7,13.6c2.2,0,3.5,1.3,3.5,3c0,2.1-1.4,2.7-2.3,3.3C40.4,20.1,40,20.4,40,21c0,0.4-0.1,0.5-0.5,0.5H39
		c-0.3,0-0.5-0.1-0.5-0.5c0-1.4,0.7-1.9,1.4-2.4c0.8-0.5,1.6-0.9,1.6-2c0-0.8-0.6-1.5-1.8-1.5c-1.2,0-1.7,0.5-2.1,1.3
		c-0.2,0.4-0.3,0.4-0.6,0.3l-0.7-0.2c-0.3-0.1-0.4-0.3-0.3-0.6C36.5,14.5,37.6,13.6,39.7,13.6z M40.2,23.2v0.1
		c0,0.7-0.2,0.9-0.9,0.9h-0.1c-0.7,0-0.9-0.2-0.9-0.9v-0.1c0-0.7,0.2-0.9,0.9-0.9h0.1C40,22.3,40.2,22.5,40.2,23.2z"/>
</g>
</svg>
