<?xml version="1.0" encoding="utf-8"?>
<!-- Generator: Adobe Illustrator 22.1.0, SVG Export Plug-In . SVG Version: 6.00 Build 0)  -->
<svg version="1.1" id="OBJECTS" xmlns="http://www.w3.org/2000/svg" xmlns:xlink="http://www.w3.org/1999/xlink" x="0px" y="0px"
	 viewBox="0 0 50 50" style="enable-background:new 0 0 50 50;" xml:space="preserve">
<style type="text/css">
	.st0{fill:#6892CA;}
	.st1{fill:#222222;}
</style>
<g>
	<path class="st0" d="M1.1,50c-0.6,0-1-0.5-1-1V1c0-0.6,0.5-1,1-1s1,0.5,1,1v48C2.1,49.5,1.7,50,1.1,50z"/>
</g>
<g>
	<path class="st0" d="M49.1,50h-48c-0.6,0-1-0.5-1-1s0.5-1,1-1h48c0.6,0,1,0.5,1,1S49.6,50,49.1,50z"/>
</g>
<g>
	<path class="st1" d="M8.8,45.9c-0.6,0-1-0.5-1-1V30.6c0-0.6,0.5-1,1-1s1,0.5,1,1v14.3C9.8,45.5,9.4,45.9,8.8,45.9z"/>
</g>
<g>
	<path class="st1" d="M24.1,45.9c-0.6,0-1-0.5-1-1V26.2c0-0.6,0.5-1,1-1c0.6,0,1,0.5,1,1v18.7C25.2,45.5,24.7,45.9,24.1,45.9z"/>
</g>
<g>
	<path class="st1" d="M31.8,45.9c-0.6,0-1-0.5-1-1V23.8c0-0.6,0.5-1,1-1c0.6,0,1,0.5,1,1v21.1C32.9,45.5,32.4,45.9,31.8,45.9z"/>
</g>
<g>
	<path class="st1" d="M39.5,45.9c-0.6,0-1-0.5-1-1V18.6c0-0.6,0.5-1,1-1s1,0.5,1,1v26.3C40.5,45.5,40.1,45.9,39.5,45.9z"/>
</g>
<g>
	<path class="st1" d="M16.5,45.9c-0.6,0-1-0.5-1-1V33.2c0-0.6,0.5-1,1-1s1,0.5,1,1v11.7C17.5,45.5,17,45.9,16.5,45.9z"/>
</g>
<g>
	<path class="st0" d="M16.5,34.2c-0.1,0-0.2,0-0.3-0.1l-7.7-2.6c-0.5-0.2-0.8-0.8-0.6-1.3c0.2-0.5,0.8-0.8,1.3-0.6l7.7,2.6
		c0.5,0.2,0.8,0.8,0.6,1.3C17.3,33.9,16.9,34.2,16.5,34.2z"/>
</g>
<g>
	<path class="st0" d="M16.5,34.2c-0.3,0-0.6-0.1-0.8-0.3c-0.4-0.4-0.3-1.1,0.1-1.4l7.7-7c0.4-0.4,1.1-0.3,1.4,0.1
		c0.4,0.4,0.3,1.1-0.1,1.4l-7.7,7C17,34.1,16.7,34.2,16.5,34.2z"/>
</g>
<g>
	<path class="st0" d="M24.1,27.2c-0.4,0-0.8-0.3-1-0.7c-0.2-0.5,0.1-1.1,0.7-1.3l7.7-2.4c0.5-0.2,1.1,0.1,1.3,0.7
		c0.2,0.5-0.1,1.1-0.7,1.3l-7.7,2.4C24.4,27.2,24.3,27.2,24.1,27.2z"/>
</g>
<g>
	<path class="st0" d="M31.8,24.8c-0.3,0-0.7-0.2-0.9-0.5c-0.3-0.5-0.2-1.1,0.3-1.4l7.7-5.2c0.5-0.3,1.1-0.2,1.4,0.3
		c0.3,0.5,0.2,1.1-0.3,1.4l-7.7,5.2C32.2,24.7,32,24.8,31.8,24.8z"/>
</g>
</svg>
