<?xml version="1.0" encoding="utf-8"?>
<!-- Generator: Adobe Illustrator 22.1.0, SVG Export Plug-In . SVG Version: 6.00 Build 0)  -->
<svg version="1.1" id="OBJECTS" xmlns="http://www.w3.org/2000/svg" xmlns:xlink="http://www.w3.org/1999/xlink" x="0px" y="0px"
	 viewBox="0 0 69.2 52.3" style="enable-background:new 0 0 69.2 52.3;" xml:space="preserve">
<style type="text/css">
	.st0{fill:#6892CA;}
	.st1{fill:#222222;}
</style>
<g>
	<path class="st0" d="M9.4,19.2c-2.3,0-4.1-1.9-4.1-4.1s1.9-4.1,4.1-4.1s4.1,1.9,4.1,4.1S11.7,19.2,9.4,19.2z M9.4,12.9
		c-1.2,0-2.1,1-2.1,2.1c0,1.2,1,2.1,2.1,2.1s2.1-1,2.1-2.1C11.5,13.9,10.6,12.9,9.4,12.9z"/>
</g>
<g>
	<path class="st0" d="M15.4,28.9h-12c-0.6,0-1-0.4-1-1v-5.1c0-1.9,0.8-3.7,2.2-5c0.4-0.4,1-0.3,1.4,0.1c0.4,0.4,0.3,1-0.1,1.4
		c-1,0.9-1.6,2.2-1.6,3.5v4.1h10v-4.1c0-1.3-0.6-2.6-1.5-3.4c-0.4-0.4-0.4-1-0.1-1.4s1-0.4,1.4-0.1c1.4,1.3,2.2,3.1,2.2,4.9v5.1
		C16.4,28.5,16,28.9,15.4,28.9z"/>
</g>
<g>
	<path class="st0" d="M34.6,18.9c-2.6,0-4.7-2.1-4.7-4.7s2.1-4.7,4.7-4.7c2.6,0,4.7,2.1,4.7,4.7S37.2,18.9,34.6,18.9z M34.6,11.6
		c-1.5,0-2.7,1.2-2.7,2.7s1.2,2.7,2.7,2.7c1.5,0,2.7-1.2,2.7-2.7S36.1,11.6,34.6,11.6z"/>
</g>
<g>
	<path class="st0" d="M27.6,29.3c-0.6,0-1-0.4-1-1v-4.9c0-2.2,0.9-4.2,2.5-5.7c0.4-0.4,1-0.3,1.4,0.1c0.4,0.4,0.3,1-0.1,1.4
		c-1.2,1.1-1.9,2.6-1.9,4.2v4.9C28.6,28.8,28.2,29.3,27.6,29.3z"/>
</g>
<g>
	<path class="st0" d="M41.6,29.3c-0.6,0-1-0.4-1-1v-5c0-1.6-0.7-3.1-1.9-4.2c-0.4-0.4-0.4-1-0.1-1.4c0.4-0.4,1-0.4,1.4-0.1
		c1.6,1.4,2.5,3.5,2.5,5.7v5C42.6,28.8,42.2,29.3,41.6,29.3z"/>
</g>
<g>
	<path class="st1" d="M34.6,31.7c-3.6,0-7.2-1.4-9.9-4.1c-3.3-3.3-4.8-8.1-3.8-12.7c0.1-0.5,0.6-0.9,1.2-0.8
		c0.5,0.1,0.9,0.6,0.8,1.2c-0.8,4,0.4,8.1,3.3,10.9c4.7,4.7,12.3,4.7,17,0c4.7-4.7,4.7-12.3,0-17c-3.3-3.3-8.2-4.4-12.6-2.8
		c-0.5,0.2-1.1-0.1-1.3-0.6c-0.2-0.5,0.1-1.1,0.6-1.3C35,2.7,40.7,4,44.5,7.8c5.5,5.5,5.5,14.4,0,19.8
		C41.8,30.4,38.2,31.7,34.6,31.7z"/>
</g>
<g>
	<path class="st1" d="M24.3,10.7c-0.2,0-0.4-0.1-0.6-0.2c-0.4-0.3-0.5-1-0.2-1.4c0.4-0.5,0.8-0.9,1.2-1.3c0.4-0.4,1-0.4,1.4,0
		c0.4,0.4,0.4,1,0,1.4c-0.4,0.4-0.7,0.7-1,1.1C24.9,10.6,24.6,10.7,24.3,10.7z"/>
</g>
<g>
	<path class="st1" d="M34.6,35.5c-4.5,0-9.1-1.7-12.6-5.2c-6.9-6.9-6.9-18.2,0-25.1C25.4,1.8,29.9,0,34.6,0c4.7,0,9.2,1.8,12.6,5.2
		c6.9,6.9,6.9,18.2,0,25.1l0,0C43.7,33.7,39.2,35.5,34.6,35.5z M34.6,2c-4.2,0-8.2,1.6-11.1,4.6c-6.1,6.1-6.1,16.1,0,22.3
		c6.1,6.1,16.1,6.1,22.3,0c6.1-6.1,6.1-16.1,0-22.3C42.8,3.6,38.8,2,34.6,2z M46.5,29.6L46.5,29.6L46.5,29.6z"/>
</g>
<g>
	<path class="st1" d="M16.2,37.2c-0.3,0-0.5-0.1-0.7-0.3c-0.4-0.4-0.4-1,0-1.4l6.6-6.6c0.4-0.4,1-0.4,1.4,0s0.4,1,0,1.4l-6.6,6.6
		C16.7,37.1,16.4,37.2,16.2,37.2z"/>
</g>
<g>
	<path class="st1" d="M6.8,42.8c-0.3,0-0.5-0.1-0.7-0.3c-0.4-0.4-0.4-1,0-1.4l2.2-2.2c0.4-0.4,1-0.4,1.4,0s0.4,1,0,1.4l-2.2,2.2
		C7.4,42.7,7.1,42.8,6.8,42.8z"/>
</g>
<g>
	<path class="st1" d="M3.6,52.3c-1,0-1.9-0.4-2.5-1c-1.4-1.4-1.4-3.7,0-5.1l2.6-2.6c0.4-0.4,1-0.4,1.4,0s0.4,1,0,1.4l-2.6,2.6
		c-0.6,0.6-0.6,1.6,0,2.3c0.6,0.6,1.7,0.6,2.3,0l7.3-7.3c0.4-0.4,1-0.4,1.4,0s0.4,1,0,1.4l-7.3,7.3C5.5,52,4.6,52.3,3.6,52.3z"/>
</g>
<g>
	<path class="st1" d="M15,42c-0.3,0-0.5-0.1-0.7-0.3c-0.4-0.4-0.4-1,0-1.4l1.1-1.1c0.6-0.6,0.6-1.6,0-2.3c-0.6-0.6-1.6-0.6-2.3,0
		L12.1,38c-0.4,0.4-1,0.4-1.4,0s-0.4-1,0-1.4l1.1-1.1c1.4-1.4,3.7-1.4,5.1,0c1.4,1.4,1.4,3.7,0,5.1l-1.1,1.1
		C15.5,41.9,15.3,42,15,42z"/>
</g>
<g>
	<path class="st1" d="M15.5,46.4c-0.7,0-1.4-0.3-1.9-0.8l-6.4-6.4c-0.4-0.4-0.4-1,0-1.4s1-0.4,1.4,0l6.4,6.4c0.2,0.2,0.7,0.2,0.9,0
		c0.1-0.1,0.2-0.3,0.2-0.5c0-0.2-0.1-0.3-0.2-0.5L9,36.4c-0.3-0.3-0.7-0.3-0.9,0c-0.4,0.4-1,0.4-1.4,0s-0.4-1,0-1.4c1-1,2.7-1,3.8,0
		l6.9,6.9c1,1,1,2.7,0,3.8C16.8,46.2,16.2,46.4,15.5,46.4z"/>
</g>
<g>
	<path class="st0" d="M59.8,19.2c-2.3,0-4.1-1.9-4.1-4.1s1.8-4.1,4.1-4.1s4.1,1.9,4.1,4.1S62.1,19.2,59.8,19.2z M59.8,12.9
		c-1.2,0-2.1,1-2.1,2.1c0,1.2,1,2.1,2.1,2.1c1.2,0,2.1-1,2.1-2.1C61.9,13.9,61,12.9,59.8,12.9z"/>
</g>
<g>
	<path class="st0" d="M65.8,28.9h-12c-0.6,0-1-0.4-1-1v-5.1c0-1.9,0.8-3.7,2.2-4.9c0.4-0.4,1-0.3,1.4,0.1c0.4,0.4,0.3,1-0.1,1.4
		c-1,0.9-1.5,2.1-1.5,3.4v4.1h10v-4.1c0-1.3-0.6-2.6-1.6-3.5c-0.4-0.4-0.4-1-0.1-1.4c0.4-0.4,1-0.4,1.4-0.1c1.4,1.3,2.2,3.1,2.2,5
		v5.1C66.8,28.5,66.4,28.9,65.8,28.9z"/>
</g>
</svg>
