<?xml version="1.0" encoding="utf-8"?>
<!-- Generator: Adobe Illustrator 22.1.0, SVG Export Plug-In . SVG Version: 6.00 Build 0)  -->
<svg version="1.1" id="Слой_1" xmlns="http://www.w3.org/2000/svg" xmlns:xlink="http://www.w3.org/1999/xlink" x="0px" y="0px"
	 viewBox="0 0 83.6 130" style="enable-background:new 0 0 83.6 130;" xml:space="preserve">
<style type="text/css">
	.st0{fill:#FFFFFF;}
	.st1{fill:#333333;}
	.st2{fill:#4A4948;}
	.st3{opacity:0.25;fill:#070809;}
	.st4{fill:#070809;}
	.st5{opacity:0.13;fill:#000100;}
	.st6{opacity:0.4;fill:#000100;}
	.st7{opacity:0.3;fill:#000100;}
	.st8{opacity:0.2;fill:#000100;}
	.st9{opacity:0.1;fill:#FFFFFF;}
	.st10{opacity:0.4;fill:#070809;}
	.st11{fill:#303032;}
</style>
<g>
	<circle class="st0" cx="47.1" cy="41.9" r="6.6"/>
	<g>
		<path class="st1" d="M38.8,1.4c0.1-0.4,0.5-0.7,0.9-0.6c0.4,0.1,0.7,0.5,0.6,0.9c-0.7,4.3,3,7.8,6.6,11.3c0.6,0.6,1.2,1.2,1.8,1.8
			c0,0,0,0,0,0c1.6,1.5,3.1,3,4.1,5.1c0.5,1,0.7,2.2,0.7,3.3c0,1.1-0.4,2.1-0.8,3c-0.2,0.4-0.5,0.8-0.7,1.1
			c-0.2,0.3-0.5,0.6-0.7,0.9c-0.5,0.5-0.9,1-1.3,1.4c-0.7,0.6-1.1,1-1.1,1c0,0-0.1,0.1-0.1,0.1c-0.7,0.5-1.7,0.4-2.2-0.3
			c-0.5-0.7-0.4-1.7,0.3-2.2c0,0,0.4-0.3,1.2-0.9c0.3-0.3,0.7-0.6,1.1-1c0.2-0.2,0.4-0.4,0.6-0.7c0.2-0.2,0.4-0.5,0.6-0.8
			c0.3-0.6,0.7-1.2,0.7-1.9c0.1-0.7,0-1.5-0.3-2.3c-0.6-1.6-1.9-3.2-3.3-4.8c-0.6-0.6-1.2-1.2-1.8-1.8C42.1,10.5,38,6.5,38.8,1.4z"
			/>
		<path class="st1" d="M38.7,1.8c-0.1,1,2.1,3.7,1.8,2.8c-0.4-1.3,1.9-1.1,1.9-2.8c0-1-0.8-1.7-1.7-1.7C39.6,0,38.9,0.4,38.7,1.8z"
			/>
		<path class="st2" d="M26.5,41.4c-2.1,2.3-2.1,6.2,1.9,7.7c4.9,3.9,9.1,5.6,14.1,6.8c12.1,2.9,19.9-9.3,19.9-16.4
			c0-8.1-4.9-13-10.6-15.1C40.3,20.1,27.6,29,24.7,35.8C24,37.4,24.8,39.5,26.5,41.4C26.5,41.4,26.5,41.4,26.5,41.4z M42.6,39.4
			c0.9-1.8,3-2.6,4.8-1.8c1.8,0.9,2.6,3,1.8,4.8c-0.9,1.8-3,2.6-4.8,1.8C42.5,43.4,41.8,41.3,42.6,39.4z M26.7,41.6
			C26.7,41.6,26.7,41.6,26.7,41.6c2.6,2.7,7,5.1,11.9,5C31.2,49.5,23.4,46.9,26.7,41.6z"/>
		<path class="st3" d="M35.3,125.6c0,2.5,8.8,4.4,19.7,4.4c10.9,0,19.7-2,19.7-4.4c0-2.5-8.8-4.4-19.7-4.4
			C44.1,121.1,35.3,123.1,35.3,125.6z"/>
		<path class="st1" d="M5.8,58.5C5.8,58.5,5.8,58.5,5.8,58.5c4.1,0,5.2,3.4,6.1,6.5c0.1,0.4,0.3,0.9,0.4,1.3
			c0.6,1.4,1.4,2.8,2.5,3.5c1.1,0.7,2.5,0.7,3.9,0.4c0.7-0.1,1.4-0.4,2.1-0.6c0.7-0.2,1.3-0.5,1.9-0.8c1.2-0.6,2-1,2.8-1.5
			c0.7-0.4,1.1-0.6,1.1-0.6c0.2-0.1,0.4-0.2,0.6-0.3c1.6-0.5,3.3,0.3,3.8,1.9c0.5,1.6-0.3,3.3-1.9,3.8c0,0-0.4,0.1-1.2,0.4
			c-0.7,0.2-2,0.7-3.4,1c-0.7,0.2-1.5,0.4-2.4,0.5c-0.9,0.1-1.8,0.3-2.8,0.3c-1,0-2.1-0.1-3.2-0.4c-1.1-0.3-2.2-1-3.1-1.8
			c-1.5-1.6-2-3.4-2.4-5c-0.2-0.5-0.3-0.9-0.4-1.4c-1-3.2-1.7-5.1-4.2-5.1c0,0,0,0,0,0c-0.5,0-1-0.4-1-1C4.8,58.9,5.3,58.5,5.8,58.5
			z"/>
		<path class="st4" d="M53,97.5c-1.1-0.7-2.5-0.4-3.2,0.6c0,0-0.1,0.1-0.2,0.2c-0.1,0.2-0.3,0.4-0.5,0.7c-0.2,0.4-0.6,0.9-0.8,1.5
			c-0.3,0.5-0.5,1.2-0.7,1.9c-0.4,1.4-0.6,3.1-0.6,4.8c0,1.7,0.3,3.4,0.5,5.1l0,0c0,0.6,0.1,1.1,0.1,1.6c0.4,4.1,0.4,6.4-0.8,7.5
			c-1,0-3.7-0.2-3.7,1.9c0,1.5,3.6,1.3,5.2,0.6c3.4-1.5-0.1-18.2,2.9-20.2c0.2-0.5,0.5-0.9,0.7-1.2c0.2-0.4,0.4-0.5,0.6-0.8
			c0.2-0.2,0.4-0.5,0.6-0.6c0.1-0.1,0.2-0.2,0.2-0.2c0.1-0.1,0.2-0.2,0.3-0.3C54.4,99.7,54.1,98.2,53,97.5z"/>
		<path class="st4" d="M26.5,41.5l0.1-0.3l0.2,0.3c2.3,2.4,6.6,5,11.7,4.9l1.1,0l-1,0.4c-2.1,0.8-4.2,1.3-6.3,1.3
			c-3,0-5.4-1-6.3-2.5C25.5,44.3,25.6,43,26.5,41.5z"/>
		<path class="st2" d="M39.1,57.1c0.4,1.7,2.1,2.7,3.8,2.3c1.7-0.4,2.7-2.1,2.3-3.8c-0.4-1.7-2.1-2.7-3.8-2.3
			C39.7,53.7,38.7,55.4,39.1,57.1z"/>
		<path class="st5" d="M62.4,39.5c0,7.1-7.8,19.3-19.9,16.4c-5.1-1.2-9.3-2.9-14.1-6.8c1.5,0.3,5.3,0.6,8.2-0.1
			C39.1,49.9,55.2,59,62.4,39.5z"/>
		<path class="st2" d="M44.1,96.8c-1.5-7.6,4-17.4,17.3-17.6c10-0.2,24.5,13,21.9,22.5C80.9,110.1,48.3,117.9,44.1,96.8z"/>
		<path class="st6" d="M69.3,81.2c1.4,0.7,2.7,1.5,4.1,2.5c3.5,5.4-2.3,16.9-1.3,20.9c0.8,2.9,7.8,2,11.1-3
			c-1.5,5.3-14.7,10.3-25.4,8.2C51.3,108.6,66.6,79.9,69.3,81.2z"/>
		<path class="st2" d="M56.1,80.2c1.6-0.4,3.8,1.4,5.5,0.6c4.3-1.9,8.1-2,10,1.1c4.9,7.7-2.8,25.9-8.5,27.9c-5,1.8-8.3,1.3-10.6-2
			c-2.4-3.3-6.9-5.1-8.1-11C43.1,90.5,46.8,82.5,56.1,80.2z"/>
		<path class="st7" d="M56.1,80.2c1.6-0.4,3.8,1.4,5.5,0.6c1.5-0.7,3-1.1,4.3-1.3c5.6,3.2-0.4,19.1-2.5,24.7
			c-0.9,2.4,4.6,2.6,6.9-3.6c-2,4.6-4.8,8.4-7.2,9.2c-5,1.8-8.3,1.3-10.6-2c-2.4-3.3-6.9-5.1-8.1-11C43.1,90.5,46.8,82.5,56.1,80.2z
			"/>
		<path class="st2" d="M42.1,97.1c-1.4-7.3,2.8-16.5,13.4-19.1c1.8-0.5,3.8-0.7,5.8-0.7c1.4,0,4.6,0.5,5.3,5.7
			c1.1,8.2-4.7,24.2-12.5,26.1l0,0c-2.1,0.5-4.2,0-6-1.5C45,105,43,101.5,42.1,97.1z"/>
		<path class="st8" d="M41.9,95.8c0-0.1,0-0.2,0-0.3c0-0.4,0-0.7,0-1.1c0-0.1,0-0.1,0-0.2c0-0.4,0-0.8,0.1-1.3c0,0,0-0.1,0-0.1
			c0-0.5,0.1-0.9,0.2-1.4c0.7-3.6,2.7-7.1,6-9.8c0.2,0.4,0.3,0.8,0.4,1.2c0.7,2.6-0.4,5.2-2.3,6.9c-0.4,0.3-0.8,0.6-1.3,0.9
			c-0.7,0.4-0.7,3.3-0.4,4.3c0.4,1.5,1.1,3,2.3,4.3c4.9,5.4,22.1-7.6,18.6-19.7c0.6,0.8,1,2,1.2,3.5c1.1,8.2-4.7,24.2-12.5,26.1l0,0
			c-2.1,0.5-4.2,0-6-1.5c-3.1-2.6-5.1-6.1-6-10.5C42,96.7,41.9,96.2,41.9,95.8z"/>
		<path class="st2" d="M37,85.7c0.7,2.7,3.4,4.3,6,3.6c2.7-0.7,4.3-3.4,3.6-6c-0.7-2.7-3.4-4.3-6-3.6C38,80.3,36.4,83,37,85.7z"/>
		<path class="st2" d="M23.3,70.5c-1.7,6.9,2.5,13.9,9.4,15.6c6.9,1.7,13.9-2.5,15.6-9.4c1.7-6.9-1.1-19-8.1-20.7
			C33.3,54.3,25,63.6,23.3,70.5z"/>
		<path class="st9" d="M55.2,79.2c1.7-0.7,3.8-0.9,5.6-0.9c1.9,0,3.6,1.6,3.1,5.4C62.7,91.2,47.8,82,55.2,79.2z"/>
		<path class="st9" d="M68.2,80.6c-0.7-0.9,1.8,0.2,2.7,1.6c0.8,1.3,1.1,3.1,1.3,5.1c0.1,1.2-1.9,1.4-2.2,0.5
			C69.4,86.3,70.1,82.9,68.2,80.6z"/>
		<path class="st9" d="M75,85.8c-0.5-0.6,2.6,2,2.9,3.8c0.3,1.5,0.2,5.9-0.8,9.2c-0.3,1.2-2.9,0.9-3.1-0.1
			C73.7,97.2,76.9,88.2,75,85.8z"/>
		<path class="st10" d="M45.9,81.6c0.2,0.2,0.3,0.5,0.4,0.7c0.2,0.3-1.3,2.9-3.5,4.4c-2.2,1.5,1.2,3.4,3.3,0.4
			c-0.7,1.1-1.7,1.9-3.1,2.3c-2.4,0.6-4.8-0.7-5.8-2.9C40.7,86,43.8,84.2,45.9,81.6z"/>
		<path class="st4" d="M44.5,40.3c0.4-0.8,1.2-1.1,2-0.7c0.8,0.4,1.1,1.2,0.7,2c-0.1,0.1-0.1,0.2-0.2,0.3c0-0.3-0.2-0.6-0.5-0.8
			c-0.4-0.2-0.9,0-1.1,0.4c-0.1,0.3-0.1,0.7,0.1,0.9c-0.1,0-0.2,0-0.3-0.1C44.5,42,44.2,41.1,44.5,40.3z"/>
		<g>
			<path class="st5" d="M45.8,60.7c0.3,0.5,0.6,1,0.8,1.5C46.3,61.7,46.1,61.2,45.8,60.7z"/>
			<path class="st5" d="M45.8,60.7c0-0.1-0.1-0.2-0.1-0.2c0,0,0,0,0,0C45.7,60.5,45.7,60.6,45.8,60.7z"/>
		</g>
		<path class="st7" d="M42.5,55.9c0.9,0.2,1.9,0.4,2.8,0.4c0,0.1,0,0.2,0,0.3c-4.9-1-4.8,2.4-2.3,2.8c-1.7,0.4-3.4-0.6-3.8-2.3
			c-0.2-0.7-0.1-1.4,0.2-2.1C40.4,55.3,41.4,55.6,42.5,55.9z"/>
		<path class="st4" d="M47.2,2.6c0.4,0,0.8,0.3,0.8,0.8c0,5.1,4.2,8.3,8.3,11.4c0.8,0.6,1.5,1.2,2.3,1.8c0,0,0,0,0.1,0
			c1.8,1.4,3.7,3,4.9,5.1c0.6,1.1,0.9,2.3,0.9,3.4c0.1,0.6,0,1.1-0.1,1.7c-0.1,0.5-0.2,1-0.3,1.5c-0.3,0.9-0.7,1.7-1,2.4
			c-0.4,0.7-0.7,1.3-1,1.7c-0.6,0.8-0.9,1.3-0.9,1.3c0,0-0.1,0.1-0.1,0.1c-0.5,0.7-1.5,0.8-2.2,0.2c-0.7-0.5-0.8-1.5-0.2-2.2
			c0,0,0.4-0.4,1-1.2c0.3-0.4,0.6-0.8,0.9-1.3c0.3-0.5,0.7-1.2,1-1.9c0.2-0.3,0.2-0.7,0.4-1.1c0-0.4,0.2-0.8,0.2-1.2
			c0.1-0.8-0.1-1.7-0.5-2.5c-0.7-1.7-2.3-3.3-3.9-4.8c-0.7-0.6-1.5-1.2-2.3-1.8c-4.2-3.2-8.9-6.8-8.9-12.6
			C46.4,2.9,46.8,2.6,47.2,2.6z"/>
		<path class="st4" d="M46.4,3.2c0,1,2.2,3.4,1.9,2.5c-0.4-1.3,1.6-0.8,1.6-2.5c0-1-0.8-1.7-1.7-1.7C47.2,1.5,46.4,2.3,46.4,3.2z"/>
		<path class="st5" d="M58.7,31.8c-0.5,0.7-0.4,1.6,0.2,2.2c0.7,0.5,1.6,0.4,2.2-0.2c0,0,0.1-0.1,0.1-0.1c0,0,0.1-0.1,0.2-0.3l0,0
			c0.4,1,0.6,2,0.8,3.1C56.6,37.1,57.9,31.7,58.7,31.8z"/>
		<path class="st9" d="M26.5,41.4c-0.5-1.1-1.5-3-1.1-4.1c3.8-9.8,24.3-16.8,33.3-5.5c0,0,0.4-0.4,1-1.2c0-0.1,0.1-0.1,0.1-0.2
			c-2-2.9-4.8-4.9-8-6.1C40.3,20.1,27.6,29,24.7,35.8C24,37.4,24.8,39.5,26.5,41.4C26.5,41.4,26.5,41.4,26.5,41.4z"/>
		<path class="st4" d="M55.1,38.9c0,0,0.1-0.1,0.1-0.4c0.1-0.2,0.1-0.7,0.1-1.1c0-0.5-0.1-1-0.4-1.6c-0.1-0.3-0.3-0.6-0.5-0.8
			c-0.2-0.3-0.4-0.5-0.6-0.8c-0.2-0.2-0.5-0.4-0.8-0.6c-0.2-0.2-0.6-0.3-0.8-0.5c-0.6-0.2-1.1-0.4-1.6-0.4c-0.5,0-0.9,0-1.1,0.1
			C49.4,33,49.2,33,49.2,33s0.1,0.1,0.4,0.2c0.2,0.1,0.6,0.3,0.9,0.4c0.4,0.2,0.8,0.4,1.2,0.7c0.4,0.3,0.8,0.6,1.1,1
			c0.4,0.3,0.7,0.7,1,1.1c0.3,0.4,0.5,0.8,0.7,1.2c0.2,0.4,0.3,0.7,0.4,0.9C55,38.8,55.1,38.9,55.1,38.9z"/>
		<path class="st2" d="M56,100.6c1.1-0.7,2.5-0.4,3.2,0.6c0,0,0.1,0.1,0.2,0.2c0.1,0.2,0.3,0.4,0.5,0.7c0.2,0.4,0.6,0.9,0.8,1.5
			c0.3,0.5,0.5,1.2,0.7,1.9c0.4,1.4,0.6,3.1,0.6,4.8c0,1.7-0.3,3.4-0.5,5.1l0,0c0,0.6-0.1,1.1-0.1,1.6c-0.4,4.1-0.4,6.4,0.8,7.5
			c1,0,3.7-0.2,3.7,1.9c0,1.5-3.6,1.3-5.2,0.6c-3.4-1.5,0.1-18.2-2.9-20.2c-0.2-0.5-0.5-0.9-0.7-1.2c-0.2-0.4-0.4-0.5-0.6-0.8
			c-0.2-0.2-0.4-0.5-0.6-0.6c-0.1-0.1-0.2-0.2-0.2-0.2c-0.1-0.1-0.2-0.2-0.3-0.3C54.7,102.7,55,101.3,56,100.6z"/>
		<path class="st6" d="M56,100.6c8.8,3.6,1.6,24,6.1,24.1c1,0,3.7-0.2,3.7,1.9c0,1.5-3.6,1.3-5.2,0.6c-3.4-1.5,0.1-18.2-2.9-20.2
			c-0.2-0.5-0.5-0.9-0.7-1.2c-0.2-0.4-0.4-0.5-0.6-0.8c-0.2-0.2-0.4-0.5-0.6-0.6c-0.1-0.1-0.2-0.2-0.2-0.2c-0.1-0.1-0.2-0.2-0.3-0.3
			C54.7,102.7,55,101.3,56,100.6z"/>
		<path class="st1" d="M0.4,58.6c-1,3,0.1,3.6,1.3,4.2C3.9,64,4,62.4,6.2,61.7C8,61.1,9,61.7,9,59.5C9,54.3,1,56.7,0.4,58.6z"/>
		<path class="st1" d="M4.3,57.8c0.4,1.4,1.4,2.2,1.8,2.1c0.4-0.1,2.6-2.5,1.3-3.3c-1.1-0.7-1.7-3.4-2.1-3.3
			C3.2,53.7,3.9,56.4,4.3,57.8z"/>
		<path class="st9" d="M45.8,72.3c0,0-0.1,0.6-0.4,1.5c-0.1,0.5-0.3,1.1-0.4,1.8c-0.3,0.8-0.6,1.7-1,2.6c2.7-11.5-4.1-6.9-4.1-6.9
			c0-0.2,0-0.3,0.1-0.5c0.4-1.6,2-2.6,3.6-2.2C45.2,69.1,46.2,70.7,45.8,72.3L45.8,72.3z"/>
		<g>
			<g>
				<path class="st2" d="M45.7,60.5C45.7,60.5,45.7,60.5,45.7,60.5C45.7,60.5,45.7,60.5,45.7,60.5C45.6,60.5,45.6,60.5,45.7,60.5z"
					/>
				<path class="st5" d="M23.3,70.5c1.4-5.8,7.5-13.2,13.5-14.4C27,61,26,74.3,30.1,80c4.2,5.7,13.5,3.7,18.1-3.3
					c-1.7,6.9-8.7,11.1-15.6,9.4C25.7,84.4,21.5,77.4,23.3,70.5z"/>
			</g>
		</g>
		<path class="st11" d="M17.8,88.3c2.6-1.8,5.5-2.6,8.3-3.2c1.9-0.6,3.9-1.1,5.7-1.7l1.5-0.6l1.4-0.7c0.8-0.5,1.6-1,2.2-1.7
			c0.7-0.5,1-1.4,1.5-1.9c0.3-0.8,0.6-1.4,0.8-2.1c0.1-0.7,0.3-1.3,0.4-1.8c0.1-0.7,0.1-1.3,0.2-1.8c0.1-1,0.1-1.6,0.1-1.6
			c0-0.2,0-0.3,0.1-0.5c0.4-1.6,2-2.6,3.6-2.2c1.6,0.4,2.6,2,2.2,3.6l0,0c0,0-0.1,0.6-0.4,1.5c-0.1,0.5-0.3,1.1-0.4,1.8
			c-0.3,0.8-0.6,1.7-1,2.7c-0.4,0.9-1.1,1.9-1.7,2.8c-0.8,0.9-1.6,1.9-2.7,2.6c-1,0.8-2.2,1.3-3.4,1.8c-0.6,0.2-1.2,0.4-1.8,0.5
			l-1.8,0.3c-2.2,0.3-4.2,0.5-6.2,0.8c-1.7,0.4-3.4,0.8-5,1.5c0.6,1.1-0.4,1.8-1.1,3.2c-1.1,2.1,0.2,4.3-2.3,5
			c-1.3,0.4-4.1,0.1-4.1-3.1C14,92,14.8,90.2,17.8,88.3z"/>
		<path class="st8" d="M49.2,42.5c0.9-1.8,0.1-4-1.8-4.8c-1.4-0.7-3-0.3-4,0.7c0,0,0,0,0,0c1.4-1.7,5.8-3.8,8.1-0.7
			c1.9,2.6-0.1,7.6-5.7,7l0,0C47.2,44.6,48.6,43.9,49.2,42.5z"/>
	</g>
</g>
</svg>
