<?xml version="1.0" encoding="utf-8"?>
<!-- Generator: Adobe Illustrator 22.1.0, SVG Export Plug-In . SVG Version: 6.00 Build 0)  -->
<svg version="1.1" id="OBJECTS" xmlns="http://www.w3.org/2000/svg" xmlns:xlink="http://www.w3.org/1999/xlink" x="0px" y="0px"
	 viewBox="0 0 298 347" style="enable-background:new 0 0 298 347;" xml:space="preserve">
<style type="text/css">
	.st0{fill:#E5E5E5;}
	.st1{fill:#363636;}
	.st2{opacity:0.1;fill:#FFFFFF;}
	.st3{fill:#4B4A4A;}
	.st4{opacity:0.4;fill:#020600;}
	.st5{opacity:0.3;fill:#020600;}
	.st6{opacity:0.2;fill:#020600;}
	.st7{opacity:0.4;fill:#101111;}
	.st8{opacity:0.13;fill:#020600;}
	.st9{fill:#333335;}
	.st10{fill:#FFFFFF;}
	.st11{fill:#101111;}
	.st12{fill:#3E81C3;}
	.st13{opacity:0.3;fill:#FFFFFF;}
	.st14{opacity:0.13;clip-path:url(#SVGID_2_);fill:#020600;}
	.st15{opacity:0.2;fill:#FFFFFF;}
</style>
<ellipse class="st0" cx="149" cy="197.8" rx="149" ry="149.2"/>
<path class="st1" d="M195.6,2.6c-1.3,0.4-2,1.9-1.6,3.2c5.3,15.6-4.3,30-13.6,43.8c-1.8,2.6-3.5,5.2-5.1,7.8
	c-0.1,0.1-0.1,0.1-0.2,0.2c-4.2,6.2-8.4,13-9.7,20.9c-0.6,3.9-0.5,8,0.7,11.6c0.4,1.9,1.3,3.4,2,5c0.9,1.4,1.7,3,2.6,4.2
	c1.8,2.6,3.8,4.6,5.5,6.4c1.8,1.7,3.6,3.2,4.9,4.2c2.6,2,4.1,3.1,4.1,3.1c0.1,0.1,0.2,0.2,0.4,0.3c2.4,1.5,5.5,0.8,7-1.6
	c1.5-2.4,0.8-5.5-1.6-7c0,0-1.6-1-4.3-2.7c-1.3-0.9-2.6-1.9-4.3-3.1c-1.6-1.3-3.3-2.9-4.9-4.7c-0.8-0.9-1.5-2-2.3-3
	c-0.5-1.1-1.4-2.2-1.7-3.5c-1.1-2.4-1.4-5.3-1.2-8.3c0.4-6.1,3.5-12.6,7.1-18.9c1.7-2.6,3.4-5.3,5.3-8c9.5-14.2,20.3-30.3,14.2-48.3
	C198.3,2.8,196.9,2.1,195.6,2.6z"/>
<path class="st1" d="M198.7,3.8c1,3-3.1,12.9-3.2,9.7c-0.1-4.3-5.7-0.7-7.5-6.1c-1-3,0.6-6.2,3.5-7.2C194.5-0.7,197.7,0.9,198.7,3.8
	z"/>
<path class="st2" d="M194.9,4.7c0.4-0.1,0.7-0.2,1.1-0.2c0.2,0,0.4,0,0.6,0.1c0,0,0,0,0,0c-0.3-0.9-0.9-1.5-1.7-1.9
	c-0.5-0.2-1-0.4-1.5-0.4c-0.4,0-0.7,0.1-1.1,0.2c-1.8,0.6-2.7,2.5-2.1,4.3c0.5,1.4,1.1,1.6,2.6,1.9C192.3,7,193.2,5.3,194.9,4.7z"/>
<path class="st3" d="M182.4,135.7c0.4-10.4,9.4-20.1,16.6-18.1c0.4,0.1,0.8,0.2,1.1,0.4c1,6.1,7.9,16.3,1.6,21.9
	c-2.5,2.2-2.4,8.8-6.9,8.5C187.9,148,182.1,142.2,182.4,135.7z"/>
<path class="st3" d="M81.3,272.6c-14.7-0.2-32.5,8.4-46.7,20.8C58.5,322,93,341.5,132,346c2.5-4.7,4.5-10,5.7-16.1
	C142.6,305.1,124.6,273.3,81.3,272.6z"/>
<path class="st4" d="M55.5,279.3c-4.5,2.2-8.9,4.9-13.2,8c-2,3.1-3.1,6.8-3.5,10.9c14.4,15.8,32.1,28.5,52.1,37
	C80.1,308.1,60.7,276.8,55.5,279.3z"/>
<path class="st3" d="M98.7,275.9c-5.2-1.3-12.4,4.4-17.8,2.1c-14.1-6-26.2-6.6-32.6,3.6c-3.6,5.7-5.1,13.1-5,21.3
	c22.7,22.9,52.8,38.5,86.5,42.9c3.1-4.2,5.7-9.2,7-15.7C140.8,309.4,128.9,283.4,98.7,275.9z"/>
<path class="st5" d="M98.7,275.9c-5.2-1.3-12.4,4.4-17.8,2.1c-5-2.1-9.7-3.6-14-4.1c-10.8,6.2-8.4,26.7-3.2,46.2
	c19.2,13.5,41.7,22.5,66.1,25.7c3.1-4.2,5.7-9.2,7-15.7C140.8,309.4,128.9,283.4,98.7,275.9z"/>
<path class="st3" d="M100.5,268.8c-5.9-1.5-12.3-2.3-19-2.4c-4.4-0.1-15,1.6-17.3,18.7C62.9,295.5,65,310,69.6,324
	c20.3,12.8,44,20.9,69.4,22.6c2.3-4.8,4-9.9,5.1-15.6C148.8,307.3,135.1,277.5,100.5,268.8z"/>
<path class="st6" d="M144.7,317.1c0-0.1,0-0.2,0-0.3c-0.2-1.5-0.4-3-0.7-4.5c-0.3-1.7-0.8-3.5-1.3-5.3c-3.3-10.8-10.1-21-20.8-28.5
	c-2.7,7.4-6,23.7,12.5,32.5c2.3,1.1,2.4,9.4,1.6,12.9c-1.2,4.9-3.5,9.6-7.3,13.8c-16,17.5-71.7-24.6-60.5-64.1
	c-1.2,1.8-2.3,4.1-3.1,6.9c-0.1,0.4-0.2,0.8-0.3,1.2c-0.1,0.3-0.1,0.6-0.2,0.9c-0.2,0.8-0.3,1.6-0.4,2.5C62.9,295.5,65,310,69.6,324
	c20.3,12.8,44,20.9,69.4,22.6c2.3-4.8,4-9.9,5.1-15.6c0,0,0-0.1,0-0.2c0.3-1.4,0.5-2.8,0.6-4.3c0-0.3,0-0.7,0.1-1.1
	c0.1-1.2,0.2-2.4,0.2-3.6c0-0.2,0-0.5,0-0.7C144.9,319.8,144.9,318.5,144.7,317.1z"/>
<path class="st2" d="M101.6,272.6c-5.5-2.1-12.5-3-18.4-3.1c-6.1-0.1-11.9,5.2-9.9,17.5C77.2,311.8,125.4,281.8,101.6,272.6z"/>
<path class="st2" d="M59.3,277.2c2.3-2.9-5.9,0.6-8.8,5.2c-2.5,4.1-3.7,10.2-4.1,16.5c-0.3,3.9,6.1,4.6,7.3,1.5
	C55.5,295.8,53.1,284.8,59.3,277.2z"/>
<path class="st1" d="M259.4,195.8c0,0-0.1,0-0.1,0c-13.1,1.6-15.2,13.1-17.1,23.2c-0.3,1.4-0.5,2.9-0.8,4.3
	c-1.5,4.8-3.6,9.6-6.7,12.1c-3.3,2.8-7.8,3.2-12.5,2.8c-2.3-0.2-4.7-0.7-6.9-1.3c-2.2-0.5-4.4-1.2-6.4-1.9c-4-1.4-6.9-2.6-9.5-3.7
	c-2.4-1-3.8-1.6-3.8-1.6c-0.6-0.2-1.3-0.5-1.9-0.6c-5.3-1.1-10.4,2.3-11.5,7.6c-1.1,5.3,2.3,10.4,7.6,11.5c0,0,1.5,0.3,4.1,0.8
	c2.4,0.5,6.7,1.4,11.5,2c2.4,0.3,5.1,0.6,7.9,0.7c2.9,0.1,5.9,0.1,9.2-0.3c3.2-0.3,6.8-1.1,10.2-2.5c3.5-1.4,6.8-3.9,9.2-7
	c4.2-5.7,5.2-11.8,5.8-17.1c0.3-1.5,0.6-3.1,0.9-4.6c2-10.9,3.6-17.1,11.5-18c0,0,0.1,0,0.1,0c1.8-0.2,3-1.8,2.8-3.6
	C262.8,196.9,261.2,195.6,259.4,195.8z"/>
<path class="st3" d="M163,206.6c-2.5,5-8.6,7.1-13.6,4.6c-5-2.5-7.1-8.6-4.6-13.6c2.5-5,8.6-7.1,13.6-4.6
	C163.4,195.5,165.5,201.6,163,206.6z"/>
<path class="st3" d="M154.2,298.9c-4,8-13.7,11.3-21.7,7.3c-8-4-11.3-13.7-7.3-21.7c4-8,13.7-11.3,21.7-7.3
	C154.9,281.2,158.2,290.9,154.2,298.9z"/>
<path class="st7" d="M128.9,279.6c-0.7,0.6-1.3,1.3-1.9,2c-0.7,0.9,2.3,10.1,8.1,16.3c5.8,6.3-6.3,9.9-10.8-1.1
	c1.3,3.9,4.1,7.4,8.1,9.3c7.2,3.6,15.9,1.2,20.4-5.2C142.4,297.3,133.8,289.6,128.9,279.6z"/>
<path class="st3" d="M204,260.2c0.7,23.1-17.6,42.4-40.7,43.1c-23.1,0.7-42.4-17.6-43.1-40.7c-0.7-23.1,16.8-59.4,40-60.1
	C183.3,201.9,203.4,237.1,204,260.2z"/>
<g>
	<path class="st8" d="M139.3,213.5c-1.2,1.3-2.5,2.7-3.6,4.2C136.8,216.2,138,214.8,139.3,213.5z"/>
	<path class="st8" d="M139.3,213.5c0.2-0.2,0.4-0.4,0.6-0.6c0,0,0,0,0,0C139.7,213,139.5,213.3,139.3,213.5z"/>
</g>
<path class="st1" d="M265.6,179.5c9.9,3.2,9.3,7,8.7,11.2c-1.2,8.3-5.3,5.5-11.6,10.1c-4.8,3.5-5.3,7.4-11,3.4
	C237.9,194.5,259.2,177.5,265.6,179.5z"/>
<path class="st1" d="M256.1,188.4c2.9,3.7,3.2,7.9,2.1,8.9c-1,0.9-11.5,2-11.2-2.6c0.3-4.2-5.7-10.9-4.7-11.9
	C247.1,177.9,253.2,184.6,256.1,188.4z"/>
<g>
	<g>
		<path class="st3" d="M139.9,212.8c-0.1,0.1-0.1,0.2-0.1,0.2C139.8,212.9,139.8,212.9,139.9,212.8
			C139.9,212.8,139.9,212.8,139.9,212.8z"/>
		<path class="st8" d="M204,260.2c-0.5-19.3-14.7-47-32.8-55.3c27.7,22.5,21.5,65.5,4.3,80.6c-17.2,15.2-45.5,2.5-55.3-23
			c0.7,23.1,19.9,41.4,43.1,40.7C186.4,302.7,204.7,283.4,204,260.2z"/>
	</g>
</g>
<path class="st9" d="M243.4,252.5c-10.2,0-19.5,5.5-28.1,9.1c-6.1,2-12.3,4.3-18.4,6.1l-5.1,1.3l-4.9,0.8c-3.2,0.1-6.2,0.3-9-0.4
	c-2.8-0.2-5.2-1.8-7.5-2.5c-2.1-1.6-4.3-2.7-6-4.2c-1.6-1.6-3.1-2.9-4.4-4.1c-1.4-1.7-2.7-3.2-3.7-4.5c-2.1-2.5-3.2-4-3.2-4
	c-0.3-0.4-0.7-0.8-1.1-1.1c-4-3.6-10.2-3.2-13.8,0.9c-3.6,4-3.2,10.2,0.9,13.7l0.1,0.1c0,0,1.4,1.2,3.8,3.4c1.2,1.1,2.7,2.4,4.5,3.9
	c2.3,1.6,4.8,3.4,7.6,5.2c2.8,1.8,6.3,3,9.7,4.5c3.8,0.8,7.7,2.2,11.9,1.9c4.2,0.3,8.3-0.6,12.3-1.5c1.9-0.6,3.8-1.3,5.8-1.9
	l5.4-2.4c6.4-3.1,12.3-6.4,17.9-9.4c5.2-2.2,10.5-4.1,16.1-5.2c0.5,4.1,0.2,10.1,9,11C256.4,274.6,258.8,251.8,243.4,252.5z"/>
<path class="st9" d="M264.3,254.1c0.2,3.8-4.2,4.1-9.9,4.3c-5.6,0.3-9.6,0.1-9.7-1.5c-0.1-1.7-3.8-3.5,1.9-3.8
	C252.2,252.8,264.2,251.7,264.3,254.1z"/>
<path class="st5" d="M163,206.6L163,206.6c2.5-5,0.5-11.1-4.6-13.6c-5-2.5-11.1-0.5-13.6,4.6c-0.5,1-0.8,2-0.9,3.1
	c16.3,0.1,13.6,11.1,5.5,10.6c0.6,0.3,1.3,0.6,1.9,0.7c0.7,0.2,1.3,0.3,2,0.3C157.2,212.5,161.1,210.4,163,206.6z"/>
<path class="st3" d="M172.5,197.6c-18.6,5.3-65.2-1.9-80.6-44.2c-11.9-32.6-4.5-73.7,44-83.3c32.4-6.4,55.1,14.5,64.3,47.8
	c1.9,6.7,2.7,14,2.7,21.5c0,2.9-0.2,5.9-0.4,8.8C200.2,171,189.7,192.7,172.5,197.6z"/>
<path class="st8" d="M172.5,197.6c-18.6,5.3-65.2-1.9-80.6-44.2c-3-8.1-4.7-16.8-5-25.4c6.7,27.8,26.2,61.2,58.7,58.4
	c22.9,8.3,38,6.9,47.9-7.6C188.4,188.1,181.3,195,172.5,197.6z"/>
<path class="st10" d="M132.9,161.8c-5.5,0.8-10.6-3-11.4-8.5c-0.8-5.5,3-10.6,8.5-11.4c5.5-0.8,10.6,3,11.4,8.5
	C142.2,155.9,138.4,161,132.9,161.8z"/>
<path class="st8" d="M124.7,162.8c-8.7-5.6-12.5-18.3-7.1-23.5c10.1-9.6,21.8,0.6,25.5,7.7c1.8,3.5,1.3,7.9-1.2,11.6
	C138.1,164.3,130.2,166.4,124.7,162.8z"/>
<path class="st10" d="M132.9,161.8c-5.5,0.8-10.6-3-11.4-8.5c-0.8-5.5,3-10.6,8.5-11.4c5.5-0.8,10.6,3,11.4,8.5
	C142.2,155.9,138.4,161,132.9,161.8z"/>
<path class="st11" d="M103.2,18.4c-1.3,0.4-2,1.9-1.6,3.2c5.3,15.6-4.3,30-13.6,43.8c-1.8,2.6-3.5,5.2-5.1,7.8
	c-0.1,0.1-0.1,0.1-0.2,0.2c-4.2,6.2-8.4,13-9.7,20.9c-0.6,3.9-0.5,8,0.7,11.6c0.4,1.9,1.3,3.4,2,5c0.9,1.4,1.7,3,2.6,4.2
	c1.8,2.6,3.8,4.6,5.5,6.4c1.8,1.7,3.6,3.2,4.9,4.2c2.6,2,4.1,3.1,4.1,3.1c0.1,0.1,0.2,0.2,0.4,0.3c2.4,1.5,5.5,0.8,7-1.6
	c1.5-2.4,0.8-5.5-1.6-7c0,0-1.6-1-4.3-2.7c-1.3-0.9-2.6-1.9-4.3-3.1c-1.6-1.3-3.3-2.9-4.9-4.7c-0.8-0.9-1.5-2-2.3-3
	c-0.5-1.1-1.4-2.2-1.7-3.5c-1.1-2.4-1.4-5.3-1.2-8.3c0.4-6.1,3.5-12.6,7.1-18.9c1.7-2.6,3.4-5.3,5.3-8C101.7,54,112.5,38,106.4,20
	C106,18.7,104.5,18,103.2,18.4z"/>
<path class="st11" d="M106.3,19.7c1,3-3.1,12.9-3.2,9.7c-0.1-4.3-5.7-0.7-7.5-6.1c-1-3,0.6-6.2,3.5-7.2
	C102.1,15.1,105.3,16.7,106.3,19.7z"/>
<path class="st12" d="M132.3,157.6c-3.2,0.5-6.2-1.8-6.6-5c-0.5-3.2,1.8-6.2,5-6.6c3.2-0.5,6.2,1.8,6.6,5
	C137.7,154.2,135.5,157.2,132.3,157.6z"/>
<path class="st11" d="M108.3,136.4c0,0,0-0.4,0-1.2c0-0.7,0.2-1.9,0.6-3.1c0.4-1.3,1.2-2.7,2.3-4c0.6-0.6,1.1-1.3,1.9-1.8
	c0.7-0.6,1.5-1,2.3-1.5c0.8-0.4,1.7-0.8,2.5-1c0.8-0.3,1.7-0.4,2.6-0.6c1.7-0.1,3.3-0.1,4.6,0.3c1.3,0.3,2.3,0.8,2.9,1.2
	c0.6,0.4,1,0.7,1,0.7s-0.5,0.1-1.2,0.2c-0.7,0.1-1.7,0.2-2.9,0.4c-1.1,0.2-2.4,0.6-3.7,0.9c-1.3,0.5-2.6,1-3.8,1.7
	c-1.3,0.6-2.4,1.5-3.5,2.3c-1,0.9-2,1.7-2.8,2.6c-0.8,0.8-1.5,1.5-1.9,2.2C108.6,136.1,108.3,136.4,108.3,136.4z"/>
<g>
	<path class="st11" d="M191.5,174.1c-6.2,14.5-24.9,17.6-41.5,9c-0.6-0.3-0.3-1.3,0.4-1.1c14.6,3.5,33.2-1.2,40.1-8.6
		C190.9,172.9,191.7,173.4,191.5,174.1z"/>
</g>
<path class="st11" d="M131.9,154.7c-1.6,0.2-3.1-0.9-3.3-2.5c-0.2-1.6,0.9-3.1,2.5-3.3c1.6-0.2,3.1,0.9,3.3,2.5
	C134.6,153,133.5,154.5,131.9,154.7z"/>
<path class="st10" d="M133.2,151.6c-0.9,0.1-1.7-0.5-1.9-1.4c-0.1-0.9,0.5-1.7,1.4-1.9c0.9-0.1,1.7,0.5,1.9,1.4
	C134.7,150.6,134.1,151.5,133.2,151.6z"/>
<path class="st10" d="M130.4,154.9c-0.5,0.1-0.9-0.2-0.9-0.7c-0.1-0.5,0.2-0.9,0.7-0.9c0.5-0.1,0.9,0.2,0.9,0.7
	C131.2,154.4,130.9,154.8,130.4,154.9z"/>
<path class="st13" d="M132.9,161.8c-3.9,0.6-7.6-1.2-9.7-4.2c-0.9-1.2,17.4-12.6,18.2-7.2C142.2,155.9,138.4,161,132.9,161.8z"/>
<path class="st2" d="M94.3,96.7c7.4-12.6,20.7-22.5,41.5-26.6c27.6-5.4,48.1,8.9,59.3,33.8C187.2,85.5,140.2,52,94.3,96.7z"/>
<path class="st11" d="M199.8,107.7c-0.4-0.1-0.9-0.1-1.3-0.1c-0.9,0-1.8,0.1-2.7,0.2c-0.9,0.1-1.7,0.5-2.5,0.7
	c-1.6,0.7-3,1.4-3.9,2.4c-1,0.9-1.7,1.8-2.1,2.4c-0.4,0.7-0.6,1.1-0.6,1.1s0.4-0.1,1.1-0.4c0.7-0.3,1.6-0.6,2.7-0.9
	c1.1-0.4,2.4-0.6,3.7-0.9c1.3-0.2,2.7-0.3,4.2-0.3c1.2,0,2.9,0.4,4,0.5C204.8,111,203.8,108.4,199.8,107.7z"/>
<ellipse class="st2" cx="136.8" cy="174.4" rx="8.2" ry="5.2"/>
<path class="st2" d="M198.4,153.6c-4.1,1.9-6.5,5.6-5.3,8.2c0.9,1.9,3.4,2.7,6.4,2.2c1.1-3.7,1.9-7.5,2.4-11.4
	C200.8,152.7,199.6,153,198.4,153.6z"/>
<path class="st10" d="M196.7,145.8c-5.5,0.8-10.6-3-11.4-8.5c-0.8-5.5,3-10.6,8.5-11.4c5.5-0.8,10.6,3,11.4,8.5
	C206,139.9,202.2,145,196.7,145.8z"/>
<g>
	<defs>
		<path id="SVGID_1_" d="M200.8,120.6c-0.2-0.9-0.4-1.8-0.6-2.6c-9.2-33.3-32-54.2-64.3-47.8c-48.6,9.6-55.9,50.7-44,83.3
			c15.4,42.2,62,49.5,80.6,44.2c17.2-4.9,27.8-26.6,30-49.4c0.3-2.9,0.4-5.8,0.4-8.8c0-0.3,0-0.5,0-0.8
			C206.5,133.7,202.6,126.1,200.8,120.6z"/>
	</defs>
	<clipPath id="SVGID_2_">
		<use xlink:href="#SVGID_1_"  style="overflow:visible;"/>
	</clipPath>
	<path class="st14" d="M182.4,135.7c0.4-10.4,9.4-20.1,16.6-18.1c13.4,3.8,10.7,19.1,6.4,25.9c-2.1,3.3-6.2,5.2-10.6,4.9
		C187.9,148,182.1,142.2,182.4,135.7z"/>
</g>
<path class="st10" d="M196.7,145.8c-5.5,0.8-10.6-3-11.4-8.5c-0.8-5.5,3-10.6,8.5-11.4c5.5-0.8,10.6,3,11.4,8.5
	C206,139.9,202.2,145,196.7,145.8z"/>
<path class="st12" d="M196.1,141.7c-3.2,0.5-6.2-1.8-6.6-5c-0.5-3.2,1.8-6.2,5-6.6c3.2-0.5,6.2,1.8,6.6,5
	C201.5,138.2,199.3,141.2,196.1,141.7z"/>
<path class="st11" d="M195.7,138.8c-1.6,0.2-3.1-0.9-3.3-2.5c-0.2-1.6,0.9-3.1,2.5-3.3c1.6-0.2,3.1,0.9,3.3,2.5
	C198.4,137,197.3,138.5,195.7,138.8z"/>
<path class="st10" d="M197,135.6c-0.9,0.1-1.7-0.5-1.9-1.4c-0.1-0.9,0.5-1.7,1.4-1.9c0.9-0.1,1.7,0.5,1.9,1.4
	C198.5,134.7,197.9,135.5,197,135.6z"/>
<path class="st10" d="M194.2,138.9c-0.5,0.1-0.9-0.2-0.9-0.7s0.2-0.9,0.7-0.9c0.5-0.1,0.9,0.2,0.9,0.7
	C195,138.4,194.7,138.8,194.2,138.9z"/>
<path class="st13" d="M196.7,145.8c-3.9,0.6-7.6-1.2-9.7-4.2c-0.9-1.2,17.4-12.6,18.2-7.2C206,139.9,202.2,145,196.7,145.8z"/>
<path class="st15" d="M102.5,20.6c0.4-0.1,0.7-0.2,1.1-0.2c0.2,0,0.4,0,0.6,0.1c0,0,0,0,0,0c-0.3-0.9-0.9-1.5-1.7-1.9
	c-0.5-0.2-1-0.4-1.5-0.4c-0.4,0-0.7,0.1-1.1,0.2c-1.8,0.6-2.7,2.5-2.1,4.3c0.5,1.4,1.1,1.6,2.6,1.9C99.9,22.8,100.8,21.1,102.5,20.6
	z"/>
</svg>
