<?xml version="1.0" encoding="utf-8"?>
<!-- Generator: Adobe Illustrator 22.1.0, SVG Export Plug-In . SVG Version: 6.00 Build 0)  -->
<svg version="1.1" id="Слой_4" xmlns="http://www.w3.org/2000/svg" xmlns:xlink="http://www.w3.org/1999/xlink" x="0px" y="0px"
	 viewBox="0 0 16 16.9" style="enable-background:new 0 0 16 16.9;" xml:space="preserve">
<style type="text/css">
	.st0{fill:#FFFFFF;}
</style>
<path class="st0" d="M11.7,9.1c1-1,1.6-2.3,1.6-3.8C13.3,2.4,11,0,8,0S2.7,2.4,2.7,5.3c0,1.5,0.6,2.8,1.6,3.8c-2.5,1.3-4.2,4-4.2,7
	c0,0.4,0.3,0.8,0.8,0.8h14.4c0.4,0,0.8-0.3,0.8-0.8C16,13.1,14.2,10.5,11.7,9.1z M4.2,5.3c0-2.1,1.7-3.8,3.8-3.8s3.8,1.7,3.8,3.8
	c0,2.1-1.7,3.8-3.8,3.8S4.2,7.4,4.2,5.3z M1.6,15.4C1.9,13,3.5,11,5.7,10.1c0.7,0.3,1.5,0.5,2.3,0.5s1.6-0.2,2.3-0.5
	c2.2,0.8,3.8,2.8,4.1,5.3H1.6z"/>
</svg>
