<?xml version="1.0" encoding="utf-8"?>
<!-- Generator: Adobe Illustrator 22.1.0, SVG Export Plug-In . SVG Version: 6.00 Build 0)  -->
<svg version="1.1" id="Слой_4" xmlns="http://www.w3.org/2000/svg" xmlns:xlink="http://www.w3.org/1999/xlink" x="0px" y="0px"
	 viewBox="0 0 13.6 12.9" style="enable-background:new 0 0 13.6 12.9;" xml:space="preserve">
<style type="text/css">
	.st0{fill:#FFFFFF;}
</style>
<g>
	<path class="st0" d="M10,12.9c-0.1,0-0.3,0-0.4-0.1l-2.8-2C3,10.7,0,8.3,0,5.4C0,2.4,3.1,0,6.8,0s6.8,2.4,6.8,5.4
		c0,1.8-1.1,3.4-2.9,4.4v2.4c0,0.3-0.2,0.5-0.4,0.7C10.3,12.8,10.1,12.9,10,12.9z M7.6,9.5l1.7,1.2V9.3c0-0.3,0.2-0.6,0.4-0.7
		c1.5-0.7,2.4-1.9,2.4-3.3c0-2.1-2.4-3.9-5.3-3.9S1.5,3.2,1.5,5.4c0,2.1,2.4,3.9,5.3,3.9c0,0,0.2,0,0.2,0C7.2,9.3,7.4,9.4,7.6,9.5z"
		/>
</g>
</svg>
