<?xml version="1.0" encoding="utf-8"?>
<!-- Generator: Adobe Illustrator 22.1.0, SVG Export Plug-In . SVG Version: 6.00 Build 0)  -->
<svg version="1.1" id="Слой_4" xmlns="http://www.w3.org/2000/svg" xmlns:xlink="http://www.w3.org/1999/xlink" x="0px" y="0px"
	 viewBox="0 0 17.8 20.1" style="enable-background:new 0 0 17.8 20.1;" xml:space="preserve">
<style type="text/css">
	.st0{fill:#FFFFFF;}
</style>
<g>
	<path class="st0" d="M16.7,20.1H1c-0.6,0-1-0.5-1-1V3.4c0-0.6,0.5-1,1-1h15.7c0.6,0,1,0.5,1,1v15.7C17.8,19.7,17.3,20.1,16.7,20.1z
		 M2.1,18h13.6V4.4H2.1V18z"/>
</g>
<g>
	<rect x="3.9" y="0.1" class="st0" width="2.1" height="3.5"/>
</g>
<g>
	<rect x="7.8" y="0.1" class="st0" width="2.1" height="3.5"/>
</g>
<g>
	<rect x="11.8" y="0.1" class="st0" width="2.1" height="3.5"/>
</g>
<g>
	<rect x="3.9" y="6.4" class="st0" width="2.1" height="2.1"/>
</g>
<g>
	<rect x="7.8" y="6.4" class="st0" width="2.1" height="2.1"/>
</g>
<g>
	<rect x="11.8" y="6.4" class="st0" width="2.1" height="2.1"/>
</g>
<g>
	<rect x="3.9" y="10.2" class="st0" width="2.1" height="2.1"/>
</g>
<g>
	<rect x="7.8" y="10.2" class="st0" width="2.1" height="2.1"/>
</g>
<g>
	<rect x="11.8" y="10.2" class="st0" width="2.1" height="2.1"/>
</g>
<g>
	<rect x="3.9" y="14" class="st0" width="2.1" height="2.1"/>
</g>
<g>
	<rect x="7.8" y="14" class="st0" width="2.1" height="2.1"/>
</g>
<g>
	<rect x="11.8" y="14" class="st0" width="2.1" height="2.1"/>
</g>
</svg>
