<?xml version="1.0" encoding="utf-8"?>
<!-- Generator: Adobe Illustrator 22.1.0, SVG Export Plug-In . SVG Version: 6.00 Build 0)  -->
<svg version="1.1" id="Слой_4" xmlns="http://www.w3.org/2000/svg" xmlns:xlink="http://www.w3.org/1999/xlink" x="0px" y="0px"
	 viewBox="0 0 28 28" style="enable-background:new 0 0 28 28;" xml:space="preserve">
<style type="text/css">
	.st0{fill:#FFFFFF;}
</style>
<g>
	<path class="st0" d="M14,2c6.6,0,12,5.4,12,12s-5.4,12-12,12S2,20.6,2,14S7.4,2,14,2 M14,0C6.3,0,0,6.3,0,14c0,7.7,6.3,14,14,14
		s14-6.3,14-14C28,6.3,21.7,0,14,0L14,0z"/>
</g>
<g>
	<path class="st0" d="M13,20.4c-0.3,0-0.6-0.1-0.7-0.3l-4.5-5c-0.4-0.4-0.3-1,0.1-1.4c0.4-0.4,1-0.3,1.4,0.1l3.7,4.2l7.3-8.2
		c0.4-0.4,1-0.5,1.4-0.1c0.4,0.4,0.5,1,0.1,1.4l-8,9.1C13.6,20.3,13.3,20.4,13,20.4C13,20.4,13,20.4,13,20.4z"/>
</g>
</svg>
