<?xml version="1.0" encoding="utf-8"?>
<!-- Generator: Adobe Illustrator 22.1.0, SVG Export Plug-In . SVG Version: 6.00 Build 0)  -->
<svg version="1.1" id="Слой_4" xmlns="http://www.w3.org/2000/svg" xmlns:xlink="http://www.w3.org/1999/xlink" x="0px" y="0px"
	 viewBox="0 0 20 19.8" style="enable-background:new 0 0 20 19.8;" xml:space="preserve">
<style type="text/css">
	.st0{fill:#FFFFFF;}
</style>
<g>
	<rect x="6" y="7" class="st0" width="2" height="2"/>
	<path class="st0" d="M10,0C4.5,0,0,4.5,0,10s4.5,10,10,10s10-4.5,10-10S15.5,0,10,0z M10,18c-4.4,0-8-3.6-8-8s3.6-8,8-8s8,3.6,8,8
		S14.4,18,10,18z"/>
	<path class="st0" d="M14.5,11.1c-0.5-0.2-1.1,0-1.3,0.5c-0.6,1.2-1.8,1.9-3.1,1.9s-2.5-0.7-3.1-1.9c-0.2-0.5-0.8-0.7-1.3-0.5
		C5,11.4,4.8,12,5.1,12.4c0.9,1.9,2.8,3.1,4.9,3.1c2.1,0,4-1.2,4.9-3.1C15.2,12,15,11.4,14.5,11.1z"/>
	<rect x="12" y="7" class="st0" width="2" height="2"/>
</g>
</svg>
