<?xml version="1.0" encoding="utf-8"?>
<!-- Generator: Adobe Illustrator 22.1.0, SVG Export Plug-In . SVG Version: 6.00 Build 0)  -->
<svg version="1.1" id="Слой_4" xmlns="http://www.w3.org/2000/svg" xmlns:xlink="http://www.w3.org/1999/xlink" x="0px" y="0px"
	 viewBox="0 0 34 23" style="enable-background:new 0 0 34 23;" xml:space="preserve">
<style type="text/css">
	.st0{fill:#F4F44A;}
</style>
<path class="st0" d="M34,0H0v23h1c0,0,0,0,0,0h32c0,0,0,0,0,0h1V0z M32,2v16.9L24.8,8.7L31.9,2H32z M2.9,21l7.6-11l6.5,6.1l6.3-6
	L31.1,21H2.9z M29,2L17,13.3l-5.8-5.5c-0.1-0.1-0.1-0.2-0.2-0.2c0,0,0,0,0,0L5,2H29z M9.1,8.6L2,18.8V2h0.1L9.1,8.6z"/>
</svg>
