<?xml version="1.0" encoding="utf-8"?>
<!-- Generator: Adobe Illustrator 22.1.0, SVG Export Plug-In . SVG Version: 6.00 Build 0)  -->
<svg version="1.1" id="Слой_4" xmlns="http://www.w3.org/2000/svg" xmlns:xlink="http://www.w3.org/1999/xlink" x="0px" y="0px"
	 viewBox="0 0 17 11.8" style="enable-background:new 0 0 17 11.8;" xml:space="preserve">
<style type="text/css">
	.st0{fill:#FFFFFD;}
</style>
<g>
	<path class="st0" d="M8.5,11.8c-4.6,0-8.2-5.1-8.3-5.3c-0.2-0.3-0.2-0.8,0-1.1C0.3,5.1,3.9,0,8.5,0c4.6,0,8.2,5.1,8.3,5.3
		c0.2,0.3,0.2,0.8,0,1.1C16.7,6.7,13.1,11.8,8.5,11.8z M2.3,5.9c1,1.2,3.5,3.9,6.2,3.9c2.8,0,5.3-2.7,6.2-3.9C13.8,4.7,11.3,2,8.5,2
		C5.7,2,3.2,4.7,2.3,5.9z"/>
</g>
<g>
	<path class="st0" d="M8.5,9.2c-1.8,0-3.3-1.5-3.3-3.3s1.5-3.3,3.3-3.3s3.3,1.5,3.3,3.3S10.3,9.2,8.5,9.2z M8.5,4.6
		c-0.7,0-1.3,0.6-1.3,1.3s0.6,1.3,1.3,1.3s1.3-0.6,1.3-1.3S9.2,4.6,8.5,4.6z"/>
</g>
<circle class="st0" cx="9.7" cy="7" r="1.2"/>
</svg>
