<?xml version="1.0" encoding="utf-8"?>
<!-- Generator: Adobe Illustrator 22.1.0, SVG Export Plug-In . SVG Version: 6.00 Build 0)  -->
<svg version="1.1" id="Слой_4" xmlns="http://www.w3.org/2000/svg" xmlns:xlink="http://www.w3.org/1999/xlink" x="0px" y="0px"
	 viewBox="0 0 28 28" style="enable-background:new 0 0 28 28;" xml:space="preserve">
<g>
	<path d="M14,2c6.6,0,12,5.4,12,12s-5.4,12-12,12S2,20.6,2,14S7.4,2,14,2 M14,0C6.3,0,0,6.3,0,14s6.3,14,14,14s14-6.3,14-14
		S21.7,0,14,0L14,0z"/>
</g>
<g>
	<path d="M18.5,19.5c-0.3,0-0.5-0.1-0.7-0.3l-9.1-9.1c-0.4-0.4-0.4-1,0-1.4s1-0.4,1.4,0l9.1,9.1c0.4,0.4,0.4,1,0,1.4
		C19.1,19.4,18.8,19.5,18.5,19.5z"/>
</g>
<g>
	<path d="M9.5,19.5c-0.3,0-0.5-0.1-0.7-0.3c-0.4-0.4-0.4-1,0-1.4l9.1-9.1c0.4-0.4,1-0.4,1.4,0s0.4,1,0,1.4l-9.1,9.1
		C10,19.4,9.7,19.5,9.5,19.5z"/>
</g>
</svg>
